<svg width="20" height="20" viewBox="0 0 20 20" fill="none" xmlns="http://www.w3.org/2000/svg">
<path d="M3.28469 12C3.12751 12 2.99949 12.1275 3.00587 12.2846C3.07714 14.0376 3.80482 15.7042 5.05035 16.9497C6.3631 18.2625 8.14358 19 10.0001 19C11.8566 19 13.6371 18.2625 14.9498 16.9497C16.1954 15.7042 16.923 14.0377 16.9943 12.2846C17.0007 12.1275 16.8727 12 16.7155 12L10.0001 12L3.28469 12Z" fill="#B6C0D4"/>
<path d="M8.58968 11.4875C8.68344 11.5368 8.78235 11.43 8.72494 11.3416C8.41335 10.8616 8.11829 10.054 8.58839 9.01391C9.37234 7.27943 9.84938 6.38109 9.84938 6.38109C9.84938 6.38109 10.1031 7.42945 10.7909 8.36158C11.4529 9.25869 11.8152 10.387 11.2311 11.3269C11.1763 11.4151 11.2729 11.5192 11.3661 11.472C12.0891 11.106 12.9001 10.3717 12.9916 8.91048C13.0254 8.46398 12.9748 7.83888 12.7218 7.05005C12.3965 6.05028 11.9965 5.58378 11.7651 5.38344C11.6959 5.3235 11.5883 5.37662 11.594 5.46746C11.6614 6.54621 11.2513 6.81996 11.0179 6.20303C10.9247 5.95662 10.8703 5.53042 10.8703 5.0114C10.8703 4.14732 10.617 3.25783 10.0586 2.53502C9.91335 2.34705 9.74343 2.17141 9.54847 2.02163C9.47788 1.9674 9.37557 2.02191 9.38204 2.11011C9.42492 2.69588 9.38607 4.37467 7.89789 6.38029C6.54855 8.24072 7.07142 9.66952 7.25695 10.0565C7.61168 10.7979 8.10646 11.2332 8.58968 11.4875Z" fill="#B6C0D4"/>
</svg>
