<svg width="43" height="44" viewBox="0 0 43 44" fill="none" xmlns="http://www.w3.org/2000/svg">
<circle cx="21.8378" cy="22.0001" r="20.5743" fill="white" stroke="#E5E7EB" stroke-width="1.17568"/>
<path d="M22.0713 22.4081C25.1486 22.4081 27.6641 19.9367 27.6641 16.9135C27.6641 13.8903 25.1486 11.4189 22.0713 11.4189C18.994 11.4189 16.4785 13.8903 16.4785 16.9135C16.4785 19.9367 18.994 22.4081 22.0713 22.4081Z" fill="#E5E7EB"/>
<path d="M31.6731 26.7976C31.5266 26.4377 31.3312 26.1018 31.1114 25.7899C29.9879 24.1583 28.254 23.0785 26.3001 22.8146C26.0559 22.7906 25.7873 22.8386 25.5918 22.9826C24.5661 23.7264 23.345 24.1103 22.0749 24.1103C20.8049 24.1103 19.5838 23.7264 18.558 22.9826C18.3626 22.8386 18.094 22.7666 17.8497 22.8146C15.8959 23.0785 14.1375 24.1583 13.0384 25.7899C12.8186 26.1018 12.6232 26.4617 12.4767 26.7976C12.4035 26.9416 12.4279 27.1095 12.5011 27.2535C12.6965 27.5894 12.9407 27.9253 13.1605 28.2132C13.5025 28.6692 13.8688 29.077 14.284 29.4609C14.6259 29.7968 15.0167 30.1087 15.4075 30.4207C17.3369 31.8363 19.6571 32.5801 22.0505 32.5801C24.444 32.5801 26.7642 31.8363 28.6936 30.4207C29.0843 30.1328 29.4751 29.7968 29.817 29.4609C30.2078 29.077 30.5986 28.6691 30.9405 28.2132C31.1847 27.9013 31.4046 27.5894 31.5999 27.2535C31.722 27.1095 31.7464 26.9415 31.6731 26.7976Z" fill="#E5E7EB"/>
</svg>
