<svg width="192" height="44" viewBox="0 0 192 44" fill="none" xmlns="http://www.w3.org/2000/svg">
<g clip-path="url(#clip0_2140_14)">
<mask id="mask0_2140_14" style="mask-type:alpha" maskUnits="userSpaceOnUse" x="0" y="0" width="45" height="44">
<ellipse cx="22.0075" cy="22" rx="22.0075" ry="22" fill="#FFEE00"/>
</mask>
<g mask="url(#mask0_2140_14)">
<ellipse cx="22.0075" cy="22" rx="22.0075" ry="22" fill="#FFEE00"/>
<ellipse cx="22.1174" cy="21.0184" rx="11.7139" ry="11.7099" fill="white"/>
<path fill-rule="evenodd" clip-rule="evenodd" d="M11.5121 47.0249C11.5176 47.0014 11.5321 46.9925 11.5556 46.9984C11.7312 47.0497 11.8492 47.0013 11.8841 46.8089C11.9157 46.786 11.9472 46.7631 11.9787 46.7402C12.0149 46.7204 12.0512 46.7005 12.0874 46.6806C12.1051 46.6533 12.1302 46.6412 12.1626 46.6446C12.2012 46.6209 12.2398 46.5972 12.2784 46.5735C12.3686 46.4533 12.5078 46.4219 12.6383 46.3743C12.6459 46.4366 12.6534 46.499 12.6609 46.5614C12.6749 46.6855 12.5955 46.837 12.7645 46.9157C12.7645 46.9157 12.7593 46.9387 12.7593 46.9387C12.8628 47.0781 13.0139 47.033 13.1491 47.0334C14.1501 47.0363 15.1512 47.0366 16.1522 47.0342C16.2882 47.0339 16.4374 47.0765 16.5492 46.9514C16.5795 46.9435 16.6101 46.9369 16.641 46.9316C16.863 46.5543 16.6968 46.1435 16.7402 45.7504C16.7621 45.5517 16.7091 45.3347 16.9409 45.2192C17.3178 45.221 17.6947 45.2228 18.0717 45.2247C18.2243 45.3894 18.3159 45.3386 18.3661 45.1414C18.7709 45.3264 19.2063 45.0296 19.6108 45.2203C20.659 45.2229 21.7072 45.2288 22.7553 45.2248C22.9365 45.2241 23.1327 45.2882 23.2978 45.1516C23.3707 45.1474 23.4435 45.1432 23.5164 45.139C23.7801 45.2182 23.666 45.0064 23.671 44.919C23.7117 44.2109 23.6714 43.5016 23.7063 42.7911C23.7225 42.4617 23.8276 42.0412 23.5433 41.7253C23.4536 41.4373 23.5157 41.1346 23.4336 40.8388C23.2462 40.1633 22.7301 39.7397 22.2941 39.2524C22.0455 38.9745 21.7896 38.7031 21.5369 38.4288C21.2794 38.702 21.04 38.9955 20.7609 39.2446C20.0441 39.8843 19.6285 40.6622 19.5867 41.6295C19.3996 41.819 19.583 42.0842 19.4604 42.2904C19.0725 42.0459 18.8995 41.6112 18.5593 41.3338C18.5585 41.2735 18.5578 41.2133 18.557 41.153C18.8934 40.7914 19.0005 40.3971 18.8662 39.896C18.7446 39.4426 18.9014 39.0212 19.2941 38.726C19.6558 38.4541 20.0237 38.19 20.3931 37.9284C20.7693 37.662 21.0674 37.3199 21.3537 36.9647C21.4772 36.8115 21.6195 36.7171 21.7745 36.9226C22.3117 37.6348 23.0428 38.1184 23.7519 38.6324C24.244 38.9892 24.4467 39.4943 24.2862 40.0873C24.1945 40.4262 24.2563 40.6806 24.4585 40.955C24.6676 41.2386 24.8655 41.6389 24.6743 41.925C24.2418 42.5719 24.3093 43.1359 24.7296 43.7225C24.7577 44.1577 24.6348 44.6016 24.8052 45.0285L24.8257 45.0641C24.8218 45.2778 24.9012 45.514 25.129 45.3618C25.3881 45.1886 25.6355 45.2625 25.8882 45.2319C26.2541 45.1876 26.6325 45.3204 26.9901 45.1546C27.0579 45.1525 27.1257 45.1503 27.1935 45.148C27.1926 45.6858 27.1892 46.2237 27.1944 46.7616C27.195 46.8206 27.1168 46.9686 27.3001 46.9181C27.331 46.9237 27.361 46.932 27.3903 46.9431C27.9252 47.0928 28.4599 47.0924 28.9944 46.9408C29.061 46.9267 29.1277 46.9126 29.1943 46.8985C29.3498 46.9114 29.5053 46.9244 29.6608 46.9374C29.9259 47.1354 30.2318 46.9884 30.5145 47.0382C30.5145 47.0675 30.5144 47.0969 30.5143 47.1262C24.3108 47.1281 18.1074 47.1303 11.904 47.131C11.7659 47.131 11.6139 47.1659 11.5121 47.0249Z" fill="#F99204"/>
<path fill-rule="evenodd" clip-rule="evenodd" d="M12.728 35.9432C12.5864 35.5658 12.6525 35.1712 12.6735 34.791C12.6984 34.3402 12.6016 34.1143 12.0991 34.2031C11.8636 34.2448 11.6241 34.2073 11.549 33.9125C11.5424 33.8864 11.5933 33.8456 11.6173 33.8118C11.6801 33.8201 11.7431 33.8283 11.806 33.8365C12.0485 34.1091 12.3491 33.9137 12.6127 33.9143C18.9674 33.927 25.3221 33.9247 31.6767 33.9198C31.8549 33.9197 32.0597 34.004 32.21 33.824C32.222 33.7963 32.2315 33.7678 32.2384 33.7384C32.2633 33.717 32.2882 33.6956 32.3131 33.6743C32.5457 34.0738 32.2692 34.1643 31.9718 34.1998C31.264 34.2843 31.2629 34.2757 31.2618 34.9788C31.2614 35.215 31.2573 35.4512 31.2616 35.6872C31.2664 35.9505 31.1784 36.1473 30.9061 36.2246C30.5822 36.2336 30.2619 36.2214 29.9397 36.1622C29.4633 36.0747 28.9831 36.0647 28.5124 36.2159C28.4531 36.208 28.3936 36.2001 28.3342 36.1923C28.307 35.5815 28.7411 35.1256 28.8882 34.5674C28.9823 34.2105 28.8743 34.2019 28.605 34.2077C28.1645 34.2171 27.7238 34.2115 27.2831 34.2123C24.1891 34.2108 21.095 34.2067 18.0009 34.2108C17.5775 34.2114 17.0398 34.0349 16.7596 34.2834C16.4462 34.5614 16.6718 35.1179 16.651 35.5518C16.6251 36.0914 16.5289 36.2228 15.971 36.2037C15.2799 36.1801 14.5925 36.0668 13.8979 36.1174C13.7665 35.7944 13.6456 35.4119 13.9581 35.1883C14.2707 34.9646 14.2499 34.6863 14.2168 34.4255C14.1786 34.1233 13.8759 34.2238 13.6675 34.2114C13.5256 34.2029 13.3816 34.2218 13.2407 34.2074C12.8827 34.1708 12.7541 34.3568 12.7557 34.6819C12.7577 35.0933 12.7597 35.5048 12.7616 35.9163L12.728 35.9432Z" fill="#C01B28"/>
<path fill-rule="evenodd" clip-rule="evenodd" d="M27.4933 27.6589C27.4833 27.6262 27.4733 27.5935 27.4634 27.5607C27.4998 27.1898 27.4196 26.8373 27.2951 26.4917C27.3028 26.4692 27.3028 26.4466 27.2953 26.4239C27.268 26.194 27.3525 25.9488 27.2006 25.7361C27.0765 24.0822 26.7211 22.47 26.3037 20.871C26.073 19.9871 25.8206 19.1078 25.4512 18.2677C25.4086 18.1708 25.4093 18.0548 25.39 17.9477C26.0678 18.1966 26.3933 18.79 26.7181 19.3604C27.6468 20.9915 28.0595 22.7979 28.4275 24.6134C28.6063 25.4958 28.7406 26.3872 28.8951 27.2745C28.9344 27.6902 28.9736 28.1058 29.0128 28.5211C29.0042 28.6824 28.8504 28.8072 28.8958 28.9825L28.896 28.9797C28.3804 29.2491 28.003 30.0016 28.0607 30.6454C28.0218 30.7781 27.9143 30.7917 27.801 30.7954C27.7275 29.8426 27.6539 28.8898 27.5804 27.937" fill="#FF0000"/>
<path fill-rule="evenodd" clip-rule="evenodd" d="M21.0152 15.4103C20.8303 15.8815 20.5216 16.2783 20.2471 16.6961C19.9758 17.1089 19.7907 17.5536 19.782 18.0574C19.6875 18.3093 19.593 18.5612 19.4985 18.8131C19.3811 18.8233 19.2824 18.8663 19.2366 18.9828C19.003 19.5766 18.7962 20.1826 18.5315 20.7622C18.2868 21.2981 18.2101 21.8725 18.0586 22.4296C17.6181 24.0486 17.2681 25.6835 17.2175 27.3691C17.0032 27.8866 17.0609 28.4517 16.935 28.9847C16.8292 30.2174 16.6549 31.4465 16.7422 32.6893C16.7133 32.7524 16.6844 32.8154 16.6555 32.8785C16.6481 32.7057 16.6329 32.5327 16.6351 32.3599C16.6401 31.958 16.4988 31.6592 16.0868 31.5383C16.0889 30.7153 16.2859 29.9056 16.2554 29.0803C16.5053 28.532 16.36 27.939 16.4348 27.3681C16.7369 25.0617 17.0985 22.7688 17.7023 20.5215C17.9379 19.6446 18.2586 18.7905 18.5406 17.926C19.0432 16.982 19.5801 16.0619 20.3576 15.309C20.5186 15.3284 20.6796 15.3477 20.8406 15.3672C20.8988 15.3815 20.957 15.3959 21.0152 15.4103Z" fill="#FBAE34"/>
<path fill-rule="evenodd" clip-rule="evenodd" d="M18.5411 17.9264C18.2591 18.7909 17.9383 19.645 17.7027 20.522C17.0989 22.7693 16.7373 25.0622 16.4352 27.3686C16.3605 27.9394 16.5057 28.5325 16.256 29.0808C15.9459 29.2458 15.6364 29.0349 15.3263 29.0792C15.1959 28.8896 15.0655 28.7 14.9351 28.5104C14.959 28.1926 14.983 27.8748 15.007 27.5571C15.0193 27.4316 15.0317 27.3061 15.0441 27.1805C15.1008 26.7996 15.1575 26.4188 15.2142 26.0379C15.235 26.0121 15.2401 25.9835 15.2294 25.9521C15.2864 25.8995 15.2999 25.8358 15.277 25.763C15.2885 25.6655 15.3 25.5679 15.3114 25.4704C15.3195 25.4091 15.3277 25.3478 15.3358 25.2865C15.6233 24.0273 15.8547 22.7536 16.2691 21.5265C16.6488 20.4024 17.0729 19.2978 17.8831 18.3957C18.0656 18.1926 18.2428 17.9718 18.5411 17.9264Z" fill="#FF0000"/>
<path fill-rule="evenodd" clip-rule="evenodd" d="M30.3044 36.9927C30.2362 38.3314 30.3486 39.6452 30.7996 40.9204C31.1765 41.9859 31.2534 43.0485 30.6774 44.0814C30.2453 43.9955 29.8135 43.9053 29.3701 43.8974C29.6497 43.0845 29.3556 42.3896 28.8245 41.8211C28.3694 41.334 28.3886 40.7917 28.4462 40.23C28.4794 39.9066 28.6247 39.5958 28.7256 39.281C28.9546 38.567 29.3486 37.862 28.9969 37.073C29.4314 37.0239 29.8746 37.1172 30.3044 36.9927Z" fill="#F79507"/>
<path fill-rule="evenodd" clip-rule="evenodd" d="M25.2989 4.91102C25.3765 4.92404 25.4627 4.91947 25.5303 4.95269C26.6384 5.49672 27.7359 5.35651 28.8304 4.91103C28.9138 4.87706 28.9981 4.84512 29.1797 4.77393C28.6844 5.52689 28.0205 5.86399 27.2596 6.1504C27.688 6.56226 28.2031 6.44062 28.7852 6.46642C28.369 6.82163 27.9801 6.94188 27.5628 6.99863C26.9768 6.9519 26.3909 6.9052 25.8049 6.85849C24.9824 6.58677 24.157 6.35586 23.2762 6.56284C23.0674 6.61191 22.8617 6.72484 22.6343 6.64771C22.7987 6.02856 23.4046 5.90698 23.8437 5.62004C24.2918 5.32714 24.8109 5.14285 25.2989 4.91102Z" fill="#E70000"/>
<path fill-rule="evenodd" clip-rule="evenodd" d="M16.6554 32.8792C16.6843 32.8162 16.7132 32.7531 16.7421 32.6901C17.6106 32.9448 18.5036 32.8657 19.3894 32.884C19.4215 32.883 19.4536 32.882 19.4857 32.881C19.423 33.1677 19.3353 33.4622 19.8057 33.4607C22.2995 33.4526 24.7934 33.4477 27.2873 33.4417C27.7625 33.4434 28.2377 33.4451 28.7129 33.4468C29.5641 33.4469 30.4153 33.447 31.2666 33.4472C31.4811 33.4521 31.6958 33.453 31.9101 33.4634C32.0745 33.4713 32.2618 33.4471 32.3129 33.6753C32.2879 33.6967 32.2631 33.7181 32.238 33.7395C27.2412 33.7385 22.2445 33.7373 17.2478 33.7382C17.1105 33.7383 16.9597 33.6957 16.8448 33.8186L16.4561 33.8164C16.3069 33.6837 16.1249 33.7403 15.9576 33.7396C14.713 33.734 13.4683 33.7382 12.2236 33.732C12.0566 33.7311 11.8128 33.8277 11.8113 33.5063C11.876 33.4985 11.9408 33.4906 12.0055 33.4828C12.1866 33.583 12.3692 33.5796 12.5528 33.4898C12.5874 33.4753 12.622 33.4608 12.6565 33.4463C12.723 33.4545 12.7895 33.4627 12.856 33.4709C12.9154 33.5531 12.9749 33.5529 13.0345 33.4712C13.2607 33.47 13.487 33.4689 13.7131 33.4677C13.8622 33.5855 14.0143 33.5771 14.1685 33.4778C14.5565 33.4791 14.9445 33.4805 15.3325 33.4819C15.5767 33.5857 15.8209 33.5858 16.0651 33.4818C16.5731 33.5862 16.5481 33.1678 16.6554 32.8792Z" fill="#F89109"/>
<path fill-rule="evenodd" clip-rule="evenodd" d="M13.2305 44.0822C12.5582 42.8948 12.8302 41.7131 13.2342 40.5227C13.5313 39.6471 13.6319 38.737 13.627 37.8137C13.6256 37.5611 13.6464 37.3083 13.657 37.0557C13.8633 37.0514 14.0696 37.047 14.2759 37.0427C14.3378 37.0533 14.3996 37.0638 14.4615 37.0743C14.6126 37.6503 14.548 38.2158 14.3203 38.7525C14.0494 39.391 13.8554 40.0481 13.7315 40.7279C13.701 40.8957 13.6668 41.0634 13.7813 41.2251C14.0248 41.5688 14.2244 41.9501 14.5037 42.2603C14.8367 42.6303 14.8938 43.0341 14.801 43.4824C14.7719 43.6232 14.7501 43.7586 14.7576 43.9004C14.6944 43.9112 14.6312 43.9221 14.568 43.9329C14.1053 43.8309 13.6718 43.9914 13.2305 44.0822Z" fill="#FFC300"/>
<path fill-rule="evenodd" clip-rule="evenodd" d="M21.7644 10.7543C21.8021 10.658 21.8398 10.5617 21.8775 10.4653C21.9371 10.4949 21.9967 10.5246 22.0563 10.5543C22.5101 11.1112 22.9599 11.6713 23.3242 12.2934C23.6358 12.8256 23.5376 13.1967 23.008 13.5081C22.5136 13.7988 22.5106 13.8125 22.845 14.2655C22.4489 14.2539 22.0527 14.2422 21.6565 14.2306C21.9193 13.9281 21.8246 13.6784 21.5667 13.4221C21.3091 13.1664 21.2261 12.8611 21.2863 12.4789C21.3802 11.8821 21.6358 11.3371 21.7644 10.7543Z" fill="#FF0000"/>
<path fill-rule="evenodd" clip-rule="evenodd" d="M31.2662 33.4463C30.4153 33.4461 29.5643 33.446 28.7134 33.4459C28.7164 33.3175 28.6711 33.2107 28.6053 33.0976C28.2921 32.5594 28.3523 32.3027 28.8445 31.9615C29.0447 31.8226 29.2744 31.7143 29.377 31.4691L29.806 31.4127C29.9732 31.4405 30.1403 31.4683 30.3074 31.4961C30.4008 31.5803 30.5164 31.5408 30.6219 31.5493C31.0393 31.5829 31.2854 31.7608 31.2654 32.2244C31.2479 32.6309 31.2646 33.0389 31.2662 33.4463Z" fill="#C01B28"/>
<path fill-rule="evenodd" clip-rule="evenodd" d="M21.6575 14.2304C22.0539 14.242 22.4502 14.2537 22.8465 14.2653C22.8776 14.2618 22.8992 14.2746 22.9111 14.3037C22.9261 14.4007 22.9505 14.4839 23.0769 14.4149C23.5282 14.2525 23.9395 14.4331 24.3193 14.6211C24.5619 14.7412 24.5425 14.9842 24.2628 15.0967C24.0323 15.1895 23.7842 15.2382 23.5436 15.3065C22.7047 15.4352 21.8589 15.3874 21.016 15.41C20.9578 15.3957 20.8996 15.3813 20.8414 15.367C20.7557 15.0047 20.5307 14.6177 21.0197 14.3568C21.0197 14.3568 21.0546 14.3449 21.0542 14.345C21.2735 14.4043 21.4543 14.2582 21.6575 14.2304Z" fill="#C01B28"/>
<path fill-rule="evenodd" clip-rule="evenodd" d="M25.2983 4.91166C24.8102 5.14349 24.2912 5.32778 23.843 5.62068C23.404 5.90762 22.7981 6.0292 22.6336 6.64835C22.4449 6.77483 22.2562 6.90132 22.0675 7.02794C22.0812 6.34227 21.8375 5.65618 22.0697 4.97059C22.9492 4.84543 23.8192 4.60299 24.7212 4.75318C24.9188 4.78609 25.1329 4.76058 25.2983 4.91166Z" fill="#FF0000"/>
<path fill-rule="evenodd" clip-rule="evenodd" d="M13.7133 33.4675C13.4871 33.4686 13.261 33.4698 13.0349 33.4707C12.9754 33.4706 12.9159 33.4706 12.8564 33.4706C12.7899 33.4624 12.7234 33.4542 12.657 33.446C12.658 33.0821 12.6586 32.7183 12.66 32.3545C12.6623 31.7483 12.7495 31.6436 13.3335 31.5397C13.4888 31.5121 13.6434 31.4806 13.7983 31.4508C13.8787 31.4429 13.959 31.4349 14.0395 31.4271C14.307 31.4405 14.5743 31.4538 14.8416 31.4671C14.801 31.5138 14.7674 31.5697 14.719 31.6059C13.7292 32.3451 13.7289 32.3447 14.0817 33.4476C13.9589 33.4542 13.8361 33.4609 13.7133 33.4675Z" fill="#EC4233"/>
<path fill-rule="evenodd" clip-rule="evenodd" d="M29.832 29.0837C29.9945 29.2726 30.1571 29.4615 30.3196 29.6504C30.3314 29.7284 30.3561 29.7985 30.4332 29.8366C30.4585 29.8738 30.4838 29.911 30.509 29.9482C30.5262 30.0059 30.5434 30.0637 30.5607 30.1214C30.5895 30.6219 30.237 30.813 29.8609 30.9848C29.713 31.0692 29.7486 31.1871 29.8018 31.3083C29.8015 31.3414 29.8012 31.3745 29.8009 31.4076C29.7452 31.3801 29.6584 31.3668 29.6385 31.323C29.2975 30.5721 28.6735 29.9093 28.8955 28.9799C28.8955 28.9799 28.8953 28.9827 28.8953 28.9827C29.0571 28.8217 29.2188 28.6606 29.3806 28.4996C29.4106 28.5355 29.4407 28.5713 29.4707 28.6071C29.4705 28.6893 29.4859 28.7597 29.5896 28.7619C29.5896 28.7619 29.599 28.7734 29.5988 28.7734C29.5698 28.9572 29.5368 29.1441 29.832 29.0837Z" fill="#F79507"/>
<path fill-rule="evenodd" clip-rule="evenodd" d="M21.657 14.2302C21.4538 14.258 21.2731 14.4041 21.0539 14.3448C21.387 13.9369 21.317 13.6698 20.8223 13.4381C20.4401 13.2591 20.2798 12.874 20.4935 12.4839C20.8381 11.8543 21.2212 11.2415 21.765 10.7536C21.6363 11.3367 21.3808 11.8817 21.2868 12.4785C21.2267 12.8607 21.3097 13.1659 21.5672 13.4217C21.8251 13.6779 21.9198 13.9277 21.657 14.2302Z" fill="#F89109"/>
<path fill-rule="evenodd" clip-rule="evenodd" d="M30.3047 36.9931C29.8749 37.1176 29.4317 37.0243 28.9971 37.0732C28.9281 36.9658 28.8166 36.9801 28.7125 36.9731C28.7967 36.6808 28.4995 36.4895 28.5124 36.2161C28.9829 36.0647 29.463 36.0748 29.9393 36.1623C30.2613 36.2215 30.5815 36.2337 30.9053 36.2247C31.2782 36.7572 31.2483 36.7955 30.3047 36.9931Z" fill="#EC4233"/>
<path fill-rule="evenodd" clip-rule="evenodd" d="M30.7827 44.8396C30.1855 44.758 29.5913 44.8939 28.9949 44.864C28.9949 44.8638 28.9941 44.8459 28.9941 44.846C29.0108 44.5476 29.3943 44.1686 28.8091 44.0024C28.9965 43.9676 29.1838 43.9329 29.3712 43.8982C29.8145 43.9061 30.2463 43.9963 30.6785 44.0822C30.7529 44.1053 30.83 44.1225 30.9017 44.1528C31.2431 44.2975 31.2888 44.4648 30.927 44.643C30.8374 44.6871 30.7493 44.7134 30.7827 44.8396Z" fill="#EC4233"/>
<path fill-rule="evenodd" clip-rule="evenodd" d="M14.2771 44.8601C13.8698 44.8691 13.4636 44.7364 13.0557 44.8514C13.0602 44.8054 13.0865 44.7411 13.0657 44.7164C12.6996 44.2808 12.6983 44.2818 13.2299 44.0821C13.6713 43.9912 14.1048 43.8307 14.5675 43.9324C14.4985 44.2356 14.4295 44.5391 14.3606 44.8426C14.3323 44.8465 14.3045 44.8524 14.2771 44.8601Z" fill="#F66056"/>
<path fill-rule="evenodd" clip-rule="evenodd" d="M21.0196 14.3571C20.5308 14.618 20.7558 15.005 20.8414 15.3673C20.6805 15.3477 20.5195 15.3284 20.3587 15.309C20.1028 15.2304 19.8356 15.1764 19.5937 15.0667C19.3066 14.9366 19.2856 14.7483 19.5941 14.6076C20.0453 14.4018 20.5189 14.2949 21.0196 14.3571Z" fill="#EC4233"/>
<path fill-rule="evenodd" clip-rule="evenodd" d="M22.0699 4.97053C21.8378 5.65611 22.0814 6.34221 22.0677 7.02787C22.0642 8.20314 22.0607 9.37855 22.0572 10.554C21.9976 10.5243 21.938 10.4946 21.8785 10.465C21.8733 8.68037 21.8667 6.89567 21.866 5.11096C21.866 4.99893 21.7852 4.69886 22.0699 4.97053Z" fill="#C01B28"/>
<path fill-rule="evenodd" clip-rule="evenodd" d="M14.2762 37.0434C14.0699 37.0477 13.8636 37.052 13.6573 37.0563C13.5715 37.0247 13.4878 36.9843 13.3995 36.963C12.7424 36.8042 12.7141 36.7585 12.9486 36.2062C12.9771 36.196 13.0062 36.1886 13.0361 36.1841C13.3221 36.1947 13.608 36.2051 13.8939 36.2156C13.9076 36.5441 14.1749 36.7554 14.2762 37.0434Z" fill="#F66056"/>
<path fill-rule="evenodd" clip-rule="evenodd" d="M11.8113 33.5064C11.8128 33.8278 12.0566 33.7312 12.2236 33.7321C13.4683 33.7383 14.713 33.7341 15.9576 33.7397C16.1249 33.7404 16.3069 33.6838 16.4561 33.8166C14.906 33.8237 13.3559 33.8307 11.8058 33.8377C11.7428 33.8295 11.6799 33.8212 11.617 33.8129C11.4823 33.5842 11.6026 33.5173 11.8113 33.5064Z" fill="#FC8C2C"/>
<path fill-rule="evenodd" clip-rule="evenodd" d="M25.804 6.85995C26.3898 6.90668 26.9755 6.95337 27.5613 7.00009C26.9623 7.11933 26.3705 7.14869 25.804 6.85995Z" fill="#DA4739"/>
<path fill-rule="evenodd" clip-rule="evenodd" d="M12.5528 33.5011C12.3692 33.6164 12.1867 33.6208 12.0056 33.4921C12.1887 33.4332 12.371 33.4378 12.5528 33.5011Z" fill="#FC8C2C"/>
<path fill-rule="evenodd" clip-rule="evenodd" d="M23.0762 14.4153C22.9499 14.4843 22.9255 14.4011 22.9106 14.3043C22.9961 14.2962 23.0763 14.2958 23.0762 14.4153Z" fill="#EC4233"/>
<path fill-rule="evenodd" clip-rule="evenodd" d="M13.0342 36.2098C13.0044 36.2157 12.9753 36.2254 12.9469 36.2387C12.9111 36.2011 12.8753 36.1635 12.8395 36.1259C12.8395 36.1259 12.8587 36.1014 12.8587 36.1014C12.9172 36.1376 12.9757 36.1737 13.0342 36.2098Z" fill="#C01B28"/>
<path fill-rule="evenodd" clip-rule="evenodd" d="M12.8459 36.1197C12.749 36.0963 12.7316 36.0244 12.7286 35.9436C12.7286 35.9436 12.7636 35.9167 12.7636 35.9167C12.7976 35.9782 12.8318 36.0396 12.8659 36.101L12.8459 36.1197Z" fill="#C01B28"/>
<path fill-rule="evenodd" clip-rule="evenodd" d="M30.5721 29.9737C30.5264 29.9279 30.4806 29.8822 30.4349 29.8364C30.4806 29.8822 30.5264 29.9279 30.5721 29.9737Z" fill="#F5F3EE"/>
<path fill-rule="evenodd" clip-rule="evenodd" d="M14.2756 37.0424C14.1743 36.7544 13.9069 36.5432 13.8932 36.2145C13.8946 36.1819 13.896 36.1493 13.8974 36.1168C14.5919 36.0662 15.2794 36.1794 15.9705 36.203C16.5284 36.2221 16.6246 36.0908 16.6505 35.5511C16.6713 35.1172 16.4457 34.5607 16.7591 34.2827C17.0393 34.0342 17.577 34.2107 18.0004 34.2102C21.0945 34.2061 24.1885 34.2101 27.2826 34.2116C27.2837 34.6381 27.3006 35.0655 27.2808 35.491C27.2646 35.839 27.3746 36.1047 27.6654 36.2949C27.3277 36.6053 27.3456 36.665 27.7418 36.8987C27.9045 36.9947 28.1238 36.8852 28.2452 37.071C28.218 37.958 28.3374 38.8552 28.0595 39.7247C27.8493 39.9397 27.8441 40.2087 27.8598 40.4832L27.8598 40.484C27.514 40.9324 27.4527 41.4536 27.4728 41.9957C27.4582 42.6897 27.4289 43.3866 27.8701 43.9897C27.3101 44.3386 27.3019 44.3688 27.6632 44.7465C27.628 44.9064 27.4468 44.9229 27.3716 45.0435C27.3439 45.0736 27.3162 45.1036 27.2885 45.1337C27.2884 45.1337 27.2819 45.1351 27.2819 45.1351C27.2515 45.1349 27.2217 45.1389 27.1925 45.1472C27.1247 45.1494 27.0569 45.1515 26.9892 45.1535C26.2696 45.0793 25.5401 45.2412 24.8247 45.0632C24.8247 45.0632 24.8041 45.0276 24.8042 45.0277C24.869 44.5872 24.9953 44.143 24.7286 43.7216C24.3082 43.135 24.2408 42.5709 24.6732 41.924C24.8644 41.638 24.6665 41.2376 24.4574 40.954C24.2552 40.6796 24.1934 40.4252 24.2852 40.0864C24.4457 39.4934 24.2429 38.9883 23.7508 38.6315C23.0418 38.1174 22.3107 37.6338 21.7734 36.9216C21.6185 36.7161 21.4761 36.8106 21.3527 36.9637C21.0663 37.319 20.7683 37.6611 20.3921 37.9275C20.0227 38.189 19.6548 38.4531 19.293 38.7251C18.9004 39.0203 18.7435 39.4417 18.8651 39.8951C18.9995 40.3962 18.8924 40.7904 18.5559 41.152C18.4642 41.0925 18.3499 41.0514 18.2845 40.9707C17.5114 40.017 16.742 39.0603 15.9826 38.0957C15.8821 37.9679 15.7808 37.909 15.6291 37.9136C15.6301 37.7431 15.6084 37.5686 15.6369 37.4028C15.6935 37.073 15.5802 36.977 15.2542 37.0323C14.995 37.0763 14.726 37.0624 14.4613 37.0741C14.3994 37.0635 14.3375 37.053 14.2756 37.0424Z" fill="#C50000"/>
<path fill-rule="evenodd" clip-rule="evenodd" d="M23.5163 45.1375C23.4434 45.1417 23.3706 45.1459 23.2978 45.15C22.7298 45.0677 22.1451 45.2461 21.585 45.0399C21.3253 44.4758 20.8218 44.0997 20.4748 43.6014C20.2557 43.2867 20.0486 42.9499 19.6897 42.7613C19.6651 42.7573 19.6404 42.754 19.6156 42.7514C19.6059 42.3769 19.5962 42.0025 19.5865 41.628C19.6283 40.6607 20.044 39.8828 20.7608 39.243C21.0398 38.994 21.2793 38.7005 21.5368 38.4272C21.7895 38.7016 22.0454 38.973 22.294 39.2509C22.73 39.7382 23.2461 40.1618 23.4335 40.8373C23.5155 41.1331 23.4535 41.4357 23.5429 41.7236C23.467 42.861 23.5173 43.9994 23.5163 45.1375Z" fill="#C01B28"/>
<path fill-rule="evenodd" clip-rule="evenodd" d="M15.6298 37.9149C15.7815 37.9103 15.8828 37.9692 15.9834 38.097C16.7427 39.0616 17.5122 40.0183 18.2852 40.972C18.3506 41.0527 18.4649 41.0937 18.5566 41.1533C18.5575 41.2136 18.5582 41.2739 18.5589 41.3342C18.3076 41.7905 18.5247 42.1738 18.7635 42.542C18.8986 42.7502 18.9273 42.8944 18.7452 43.1138C18.4745 43.4401 18.2976 43.8297 18.3508 44.2808C18.2685 44.3428 18.2605 44.4054 18.3495 44.4685C18.3513 44.5659 18.3531 44.6633 18.3549 44.7606C18.2604 44.9154 18.1659 45.0702 18.0713 45.225C17.6944 45.2232 17.3175 45.2214 16.9405 45.2197C16.8614 45.0718 16.7317 45.0342 16.5761 45.0525C16.4203 44.9619 16.2834 44.8296 16.0858 44.8331C16.5192 44.3458 16.5192 44.3458 16.0682 43.9967C16.0823 43.9198 16.0728 43.826 16.1141 43.7685C16.5448 43.1685 16.5143 42.5092 16.3666 41.8381C16.2267 41.2027 16.0447 40.5797 15.8565 39.9559C15.6622 39.3114 15.6959 38.5981 15.6298 37.9149Z" fill="#FF0000"/>
<path fill-rule="evenodd" clip-rule="evenodd" d="M18.3551 44.7598C18.3533 44.6625 18.3515 44.5651 18.3498 44.4678C18.3502 44.4053 18.3506 44.3427 18.351 44.28C18.2978 43.8289 18.4746 43.4393 18.7453 43.113C18.9273 42.8936 18.8986 42.7494 18.7636 42.5412C18.5248 42.173 18.3078 41.7897 18.559 41.3334C18.8992 41.6107 19.0721 42.0454 19.4599 42.29C19.5825 42.0838 19.3991 41.8185 19.5861 41.629C19.5958 42.0036 19.6054 42.378 19.615 42.7525C19.6134 43.575 19.6118 44.3974 19.6103 45.2199C19.2059 45.0292 18.7707 45.3259 18.3659 45.1409C18.3622 45.0138 18.3587 44.8868 18.3551 44.7598Z" fill="#FFC300"/>
<path fill-rule="evenodd" clip-rule="evenodd" d="M19.6107 45.2199C19.6123 44.3974 19.6138 43.575 19.6155 42.7525C19.6404 42.7551 19.6651 42.7584 19.6897 42.7623C19.6895 43.3797 19.7085 43.9979 19.6823 44.6141C19.6649 45.0244 19.8561 45.1606 20.2205 45.1336C20.6752 45.1 21.125 44.9971 21.585 45.041C22.1451 45.2471 22.7298 45.0687 23.2978 45.151C23.1325 45.2877 22.9364 45.2236 22.7552 45.2243C21.707 45.2284 20.6589 45.2224 19.6107 45.2199Z" fill="#EE472B"/>
<path fill-rule="evenodd" clip-rule="evenodd" d="M23.5159 45.138C23.517 43.9999 23.4667 42.8615 23.5425 41.7241C23.8271 42.0401 23.722 42.4606 23.7058 42.79C23.6709 43.5005 23.7112 44.2098 23.6705 44.9179C23.6655 45.0054 23.7795 45.2172 23.5159 45.138Z" fill="#FC8C2C"/>
<path fill-rule="evenodd" clip-rule="evenodd" d="M24.729 43.7224C24.9956 44.1438 24.8694 44.588 24.8046 45.0285C24.6342 44.6014 24.7571 44.1575 24.729 43.7224Z" fill="#FC8C2C"/>
<path fill-rule="evenodd" clip-rule="evenodd" d="M27.6665 36.2964C27.3758 36.1062 27.2659 35.8406 27.282 35.4926C27.3018 35.067 27.2849 34.6397 27.2839 34.2131C27.7243 34.2124 28.165 34.2179 28.6052 34.2085C28.8744 34.2028 28.9825 34.2113 28.8884 34.5682C28.7413 35.1264 28.3074 35.5823 28.3345 36.1933C28.1118 36.2277 27.8892 36.2621 27.6665 36.2964Z" fill="#DD2A16"/>
<path fill-rule="evenodd" clip-rule="evenodd" d="M13.898 36.1185C13.8966 36.151 13.8952 36.1836 13.8938 36.2162C13.6079 36.2059 13.322 36.1954 13.036 36.1849C12.9774 36.1571 12.9188 36.1295 12.8602 36.1018C12.8275 36.0403 12.7948 35.9788 12.7621 35.9173C12.7601 35.5059 12.7582 35.0944 12.7562 34.6829C12.7546 34.3578 12.8831 34.1718 13.241 34.2084C13.3819 34.2228 13.5258 34.2039 13.6677 34.2124C13.876 34.2248 14.1786 34.1243 14.2168 34.4265C14.2498 34.6873 14.2707 34.9656 13.9581 35.1893C13.6458 35.4129 13.7666 35.7955 13.898 36.1185Z" fill="#DD2A16"/>
<path fill-rule="evenodd" clip-rule="evenodd" d="M11.8054 33.8372C13.3555 33.8301 14.9056 33.8231 16.4557 33.816C16.5853 33.8167 16.7148 33.8174 16.8443 33.8182C21.966 33.8204 27.0877 33.8225 32.2093 33.8246C32.059 34.0046 31.8543 33.9203 31.6761 33.9204C25.3214 33.9253 18.9667 33.9276 12.6121 33.9149C12.3485 33.9144 12.0478 34.1097 11.8054 33.8372Z" fill="#DD2A16"/>
<path fill-rule="evenodd" clip-rule="evenodd" d="M32.2097 33.8676C27.088 33.8645 21.9663 33.8614 16.8447 33.8582C16.9597 33.6782 17.1105 33.7406 17.2478 33.7405C22.2445 33.7391 27.2412 33.7409 32.238 33.7423C32.2312 33.7853 32.2218 33.827 32.2097 33.8676Z" fill="#FC8C2C"/>
<path fill-rule="evenodd" clip-rule="evenodd" d="M27.6659 36.2959C27.8886 36.2616 28.1112 36.2273 28.3339 36.1929C28.3934 36.2006 28.4528 36.2084 28.5122 36.2163C28.4993 36.4899 28.7964 36.6812 28.7122 36.9734C28.5792 37.1132 28.3993 37.0308 28.2455 37.072C28.1242 36.8863 27.905 36.9958 27.7423 36.8998C27.3462 36.6661 27.3283 36.6063 27.6659 36.2959Z" fill="#FA5E53"/>
<path fill-rule="evenodd" clip-rule="evenodd" d="M27.4627 27.5614C27.3722 27.5607 27.2817 27.56 27.1912 27.5593C27.322 27.2131 27.2733 26.8496 27.2945 26.4926C27.419 26.8379 27.4992 27.1904 27.4627 27.5614Z" fill="#FC8C2C"/>
<path fill-rule="evenodd" clip-rule="evenodd" d="M27.2043 25.7357C27.3904 25.9484 27.2869 26.1936 27.3203 26.4235C27.0825 26.2167 27.2314 25.9663 27.2043 25.7357Z" fill="#FC8C2C"/>
<path fill-rule="evenodd" clip-rule="evenodd" d="M29.8012 31.4088C29.8012 31.4088 29.8056 31.4135 29.8059 31.4137C29.6632 31.4328 29.5202 31.4516 29.3772 31.4703C29.125 31.4654 28.8728 31.4605 28.6205 31.4556C28.79 31.177 28.7864 30.9651 28.421 30.854C28.2919 30.8147 28.1804 30.7176 28.0608 30.6469C28.0031 30.0031 28.3803 29.2506 28.8958 28.9811C28.6737 29.9105 29.2978 30.5734 29.6388 31.3243C29.6587 31.368 29.7455 31.3813 29.8012 31.4088Z" fill="#FFC300"/>
<path fill-rule="evenodd" clip-rule="evenodd" d="M28.0606 30.6451C28.1802 30.7159 28.2917 30.813 28.4209 30.8523C28.7862 30.9633 28.7899 31.1752 28.6203 31.4539C28.3467 31.373 28.0172 31.763 27.7825 31.3544C27.7741 31.1958 27.7658 31.0371 27.7574 30.8785C27.77 30.8496 27.7845 30.8219 27.801 30.7951C27.9142 30.7914 28.0218 30.7778 28.0606 30.6451Z" fill="#C01B28"/>
<path fill-rule="evenodd" clip-rule="evenodd" d="M29.3811 28.4998C29.2193 28.6608 29.0575 28.8218 28.8958 28.9828C28.8505 28.8075 29.0041 28.6827 29.0128 28.5214C29.1416 28.6159 29.2358 28.1278 29.3811 28.4998Z" fill="#FBAE34"/>
<path fill-rule="evenodd" clip-rule="evenodd" d="M19.4986 18.8122C19.3813 20.5469 19.5095 22.3024 19.0314 24.0069C18.9077 24.4477 18.7696 24.8818 18.5708 25.2902C18.4512 25.5359 18.3675 25.7799 18.3416 26.0478C18.1343 26.069 18.1085 26.237 18.0828 26.3893C18.0386 26.6508 18.0107 26.9151 17.976 27.1783C17.7235 27.2416 17.4709 27.3049 17.2184 27.3683C17.269 25.6826 17.6188 24.0478 18.0591 22.4288C18.2106 21.8717 18.2872 21.2973 18.5319 20.7613C18.7965 20.1818 19.0032 19.5758 19.2367 18.982C19.2826 18.8654 19.3812 18.8225 19.4986 18.8122Z" fill="#F99204"/>
<path fill-rule="evenodd" clip-rule="evenodd" d="M18.3485 30.3025C18.5308 30.9452 18.9945 31.4467 19.2298 32.0637C19.3311 32.3294 19.4419 32.5894 19.3885 32.8835C18.5028 32.8652 17.6102 32.9442 16.742 32.6895C16.6547 31.4468 16.829 30.2176 16.9347 28.9849C17.1232 28.9637 17.3332 28.981 17.4602 29.0964C17.6636 29.2812 17.8076 29.1246 17.9763 29.0804C17.9853 29.1844 17.9586 29.302 18.0837 29.3616C18.0846 29.4233 18.0854 29.485 18.0861 29.5467C18.1371 29.8113 17.8801 30.1831 18.3485 30.3025Z" fill="#F99204"/>
<path fill-rule="evenodd" clip-rule="evenodd" d="M14.083 33.4466C13.7302 32.3438 13.7305 32.3442 14.7203 31.605C14.7687 31.5688 14.8023 31.5129 14.8429 31.4661C14.8806 31.4595 14.9183 31.453 14.9559 31.4465C15.333 31.477 15.7101 31.5074 16.0873 31.5379C16.4991 31.6587 16.6404 31.9575 16.6353 32.3595C16.6331 32.5322 16.6484 32.7052 16.6558 32.878C16.5485 33.1666 16.5735 33.5849 16.0658 33.4805C15.8217 33.4804 15.5775 33.4806 15.3333 33.4807C14.9454 33.4793 14.5576 33.4779 14.1697 33.4764C14.1426 33.4612 14.1137 33.4514 14.083 33.4466Z" fill="#C01B28"/>
<path fill-rule="evenodd" clip-rule="evenodd" d="M16.0866 31.5373C15.7095 31.5069 15.3324 31.4765 14.9551 31.446C14.9501 31.4209 14.9496 31.3956 14.9534 31.3703C15.2504 31.2673 15.2468 30.8965 15.5421 30.7545C15.9493 30.5588 15.9893 30.181 15.7118 29.8037C15.5457 29.5779 15.3344 29.3798 15.3039 29.0784L15.326 29.0778C15.6359 29.0334 15.9453 29.2443 16.2553 29.0793C16.2856 29.9046 16.0887 30.7143 16.0866 31.5373Z" fill="#FA5E53"/>
<path fill-rule="evenodd" clip-rule="evenodd" d="M17.7022 27.5403C17.6564 27.5293 17.6107 27.5183 17.5649 27.5073C17.5862 27.5561 17.6065 27.6389 17.6291 27.6443C17.6523 27.6498 17.6777 27.5794 17.7022 27.5403ZM17.9778 29.0782C17.8091 29.1225 17.6651 29.279 17.4617 29.0943C17.3347 28.9789 17.1247 28.9616 16.9362 28.9828C17.0621 28.4498 17.0044 27.8847 17.2187 27.3672C17.4712 27.3039 17.7238 27.2405 17.9764 27.1772C17.9762 27.4621 17.9761 27.747 17.9759 28.0318C17.8268 27.938 17.9294 27.7613 17.8505 27.6432C17.2327 28.2498 17.2467 28.3727 17.9685 28.6964C17.9716 28.8237 17.9747 28.951 17.9778 29.0782Z" fill="#F89109"/>
<path fill-rule="evenodd" clip-rule="evenodd" d="M14.7477 28.5195C14.8098 28.516 14.872 28.5126 14.9342 28.5092C15.0645 28.6988 15.1948 28.8884 15.3252 29.078C15.3253 29.078 15.3032 29.0787 15.3033 29.0787C14.9218 29.0878 14.8663 28.7723 14.7477 28.5195Z" fill="#FC8C2C"/>
<path fill-rule="evenodd" clip-rule="evenodd" d="M28.2455 37.072C28.3993 37.0307 28.5792 37.1131 28.7122 36.9733C28.8164 36.9803 28.9279 36.9661 28.9969 37.0735C29.3486 37.8626 28.9546 38.5676 28.7257 39.2816C28.6247 39.5964 28.4794 39.9072 28.4463 40.2306C28.3887 40.7923 28.3695 41.3346 28.8246 41.8217C29.3556 42.3902 29.6497 43.0851 29.3702 43.898C29.1828 43.9327 28.9955 43.9674 28.8081 44.0021C28.4955 43.9983 28.183 43.9944 27.8706 43.9906C27.4295 43.3876 27.4588 42.6907 27.4735 41.9967C27.6269 41.4991 27.7843 41.0025 27.8603 40.485C27.8603 40.485 27.8603 40.4842 27.8603 40.4842C28.0304 40.2587 28.0519 39.9939 28.0599 39.7257C28.3377 38.8562 28.2183 37.9589 28.2455 37.072Z" fill="#FFC300"/>
<path fill-rule="evenodd" clip-rule="evenodd" d="M22.3485 32.5965C23.4114 32.552 24.4164 32.2402 25.4151 31.9129C26.0087 31.7184 26.5882 31.4805 27.1742 31.2621C27.1876 31.5442 27.2008 31.8262 27.2141 32.1082C27.2385 32.5523 27.263 32.9964 27.2874 33.4406C24.7935 33.4466 22.2997 33.4515 19.8058 33.4596C19.3354 33.4611 19.4231 33.1665 19.4858 32.8799C20.4501 32.888 21.4087 32.8377 22.3485 32.5972C22.3484 32.5971 22.3485 32.5965 22.3485 32.5965Z" fill="#C01B28"/>
<path fill-rule="evenodd" clip-rule="evenodd" d="M27.2882 33.441C27.2638 32.9968 27.2394 32.5527 27.2148 32.1086C27.4412 31.8856 27.6763 31.669 27.7824 31.3551C28.0172 31.7636 28.3466 31.3736 28.6203 31.4546C28.8726 31.4594 29.1248 31.4643 29.377 31.4692C29.2743 31.7144 29.0446 31.8228 28.8445 31.9616C28.3523 32.3029 28.2921 32.5595 28.6052 33.0978C28.671 33.2109 28.7163 33.3177 28.7133 33.4461C28.2383 33.4443 27.7633 33.4426 27.2882 33.441Z" fill="#EF412B"/>
<path fill-rule="evenodd" clip-rule="evenodd" d="M15.3326 33.4814C15.5768 33.4812 15.821 33.481 16.0651 33.481C15.8209 33.6644 15.5768 33.6641 15.3326 33.4814Z" fill="#FC8C2C"/>
<path fill-rule="evenodd" clip-rule="evenodd" d="M14.0821 33.4466C14.1128 33.4527 14.1417 33.4655 14.1687 33.4851C14.0149 33.6134 13.8631 33.6243 13.7143 33.4722C13.837 33.4638 13.9595 33.4552 14.0821 33.4466Z" fill="#FC8C2C"/>
<path fill-rule="evenodd" clip-rule="evenodd" d="M12.8564 33.4702C12.9159 33.4701 12.9753 33.47 13.0347 33.4703C12.9751 33.6529 12.9157 33.6532 12.8564 33.4702Z" fill="#FC8C2C"/>
<path fill-rule="evenodd" clip-rule="evenodd" d="M15.6296 37.9141C15.6956 38.5973 15.6619 39.3106 15.8562 39.9551C16.0443 40.5789 16.2263 41.2019 16.3661 41.8373C16.5138 42.5085 16.5442 43.1677 16.1137 43.7677C16.0724 43.8252 16.0819 43.919 16.0679 43.9959C15.6266 44.0312 15.1927 43.9622 14.7583 43.9006C14.7508 43.7589 14.7726 43.6234 14.8017 43.4826C14.8945 43.0343 14.8374 42.6305 14.5044 42.2606C14.2251 41.9503 14.0255 41.569 13.782 41.2253C13.6675 41.0636 13.7016 40.8959 13.7322 40.7281C13.8561 40.0483 14.0501 39.3912 14.321 38.7527C14.5487 38.216 14.6133 37.6505 14.4622 37.0745C14.7268 37.0629 14.9957 37.0768 15.2548 37.0328C15.5807 36.9775 15.6939 37.0735 15.6373 37.4034C15.6089 37.5691 15.6306 37.7436 15.6296 37.9141Z" fill="#F99204"/>
<path fill-rule="evenodd" clip-rule="evenodd" d="M14.7585 43.8998C15.1929 43.9614 15.6268 44.0304 16.0681 43.9951C16.5189 44.3442 16.5189 44.3442 16.0856 44.8317C15.5111 44.8353 14.9365 44.8387 14.362 44.8422C14.431 44.5387 14.4999 44.2352 14.5689 43.932C14.6321 43.9215 14.6953 43.9106 14.7585 43.8998Z" fill="#EF412B"/>
<path fill-rule="evenodd" clip-rule="evenodd" d="M29.832 29.083C29.5374 29.1433 29.5703 28.9567 29.5992 28.7733C29.7552 28.8177 29.7851 28.9567 29.832 29.083Z" fill="#FBAE34"/>
<path fill-rule="evenodd" clip-rule="evenodd" d="M29.6088 28.7627C29.4891 28.7604 29.4714 28.6902 29.4716 28.608C29.5615 28.6302 29.6059 28.6827 29.6088 28.7627Z" fill="#FBAE34"/>
<path fill-rule="evenodd" clip-rule="evenodd" d="M14.9531 31.3716C14.9493 31.3969 14.9498 31.4222 14.9548 31.4473C14.9174 31.4538 14.8798 31.4603 14.842 31.4668C14.5747 31.4536 14.3074 31.4403 14.0399 31.4269C14.1 31.2078 14.1422 30.9994 13.8645 30.8847C13.4317 30.7059 13.323 30.3703 13.426 29.9394C13.5927 29.7772 13.7263 29.5924 13.8109 29.3742C13.9717 29.3161 13.9555 29.0769 14.1445 29.0476C14.2586 29.1971 14.2724 29.3469 14.2088 29.5323C14.1545 29.6909 14.1279 29.8915 14.2497 30.0312C14.5924 30.424 14.8031 30.8805 14.9531 31.3716Z" fill="#FFC300"/>
<path fill-rule="evenodd" clip-rule="evenodd" d="M29.8927 30.9841C29.8668 31.0918 29.8409 31.1994 29.8153 31.3071C29.7464 31.1861 29.7 31.0684 29.8927 30.9841Z" fill="#FBAE34"/>
<path fill-rule="evenodd" clip-rule="evenodd" d="M14.9527 31.3707C14.8027 30.8796 14.592 30.4231 14.2493 30.0303C14.1275 29.8906 14.1541 29.69 14.2085 29.5314C14.272 29.346 14.2582 29.1962 14.1441 29.0467C14.2289 28.8277 14.3784 28.6563 14.5465 28.4985C14.6107 28.5029 14.675 28.5073 14.7392 28.5116C14.7392 28.5116 14.7477 28.5195 14.7477 28.5195C14.8663 28.7724 14.9218 29.0879 15.3034 29.0788C15.3337 29.3801 15.5451 29.5783 15.7111 29.804C15.9886 30.1814 15.9487 30.5591 15.5415 30.7549C15.2462 30.8969 15.2497 31.2677 14.9527 31.3707Z" fill="#F79507"/>
<path fill-rule="evenodd" clip-rule="evenodd" d="M14.7396 28.5147C14.6755 28.5102 14.6113 28.5058 14.5471 28.5013C14.5543 28.4368 14.5726 28.3708 14.6483 28.3779C14.7181 28.3845 14.7415 28.4461 14.7396 28.5147Z" fill="#FC8C2C"/>
<path fill-rule="evenodd" clip-rule="evenodd" d="M27.8707 43.9897C28.1832 43.9936 28.4957 43.9974 28.8082 44.0012C29.3934 44.1675 29.0099 44.5465 28.9933 44.8449C28.5463 44.8651 28.1008 44.8642 27.6639 44.7466C27.3027 44.3689 27.3109 44.3387 27.8707 43.9897Z" fill="#FA5E53"/>
<path fill-rule="evenodd" clip-rule="evenodd" d="M27.8611 40.4849C27.785 41.0024 27.6276 41.499 27.4742 41.9966C27.4541 41.4545 27.5154 40.9333 27.8611 40.4849Z" fill="#EE472B"/>
<path fill-rule="evenodd" clip-rule="evenodd" d="M28.0609 39.7241C28.0529 39.9924 28.0314 40.2571 27.8613 40.4826C27.8456 40.2081 27.8508 39.9391 28.0609 39.7241Z" fill="#EE472B"/>
<path fill-rule="evenodd" clip-rule="evenodd" d="M21.584 45.0418C21.1242 44.9979 20.6745 45.1008 20.22 45.1344C19.8557 45.1613 19.6646 45.0251 19.682 44.6149C19.7081 43.9986 19.6892 43.3804 19.6894 42.7631C20.0481 42.9518 20.2552 43.2885 20.4743 43.6032C20.8211 44.1015 21.3244 44.4776 21.584 45.0418Z" fill="#FF0000"/>
<path fill-rule="evenodd" clip-rule="evenodd" d="M19.8628 26.7996C20.2901 25.5096 20.7523 24.2366 21.3477 23.0089C21.589 22.5113 21.6458 21.9237 21.7822 21.376C21.8125 21.2541 21.8227 21.075 21.9483 21.0692C22.1204 21.0613 22.1168 21.2523 22.1521 21.3853C22.3484 22.1256 22.5904 22.8461 22.8692 23.5641C23.2947 24.6602 23.8374 25.7218 24.0527 26.8947C23.8945 26.916 23.7155 26.833 23.584 26.9883C23.584 26.9883 23.5804 26.9917 23.5804 26.9917C23.5181 27.0853 23.4557 27.1789 23.3933 27.2725C23.3346 27.1799 23.272 27.1691 23.2045 27.2637L23.0283 27.1753C22.9129 27 22.7471 26.8839 22.579 26.7627C22.157 26.4584 22.1601 26.259 22.5812 25.9238C22.8543 25.7064 23.0765 25.4575 23.0032 25.0829C22.8595 24.3482 22.5011 23.6923 22.1947 23.0198C22.0931 22.7966 21.9332 22.764 21.8012 23.0338C21.593 23.4596 21.4073 23.893 21.2396 24.3372C20.9221 25.178 20.9433 25.3317 21.5934 25.9483C21.7051 26.3409 21.3574 26.5252 21.2079 26.7994L21.2074 26.7998C20.9079 26.7893 20.7279 26.9887 20.5365 27.1747C20.4094 27.2981 20.254 27.3731 20.0724 27.3196C19.8513 27.2545 19.8783 27.0646 19.8766 26.8928C19.8748 26.8613 19.8702 26.8302 19.8628 26.7996Z" fill="#F89109"/>
<path fill-rule="evenodd" clip-rule="evenodd" d="M24.4306 28.0474C24.4346 28.3934 24.4386 28.7396 24.4425 29.0857C24.4405 29.4492 24.4375 29.8128 24.4365 30.1763C24.4341 31.1259 23.8407 31.9213 22.9175 32.2114C22.9154 32.1487 22.9132 32.086 22.9111 32.0233C23.2868 31.5725 23.5899 31.0822 23.6728 30.4894C23.802 29.5648 23.3286 28.9337 22.6361 28.4164C22.5961 28.1392 22.6508 27.9023 22.9167 27.7553C22.9498 27.751 22.983 27.7468 23.0161 27.7425C23.1087 27.7414 23.2013 27.7403 23.2939 27.7391C23.3173 27.7519 23.3408 27.7647 23.3642 27.7775C23.3704 27.7343 23.3766 27.6911 23.3829 27.6479C23.3827 27.6162 23.3848 27.5846 23.3892 27.5532C23.4534 27.5403 23.5379 27.8084 23.5769 27.5493C23.6044 27.3673 23.5814 27.1777 23.5809 26.9914C23.5809 26.9914 23.5844 26.988 23.5843 26.988C23.7087 26.9938 23.846 26.9855 23.86 27.1603C23.8754 27.3527 24.0036 27.3741 24.1544 27.3689C24.2152 27.4962 24.2759 27.6234 24.3367 27.7506C24.34 27.8584 24.3206 27.9735 24.4306 28.0474Z" fill="#F89109"/>
<path fill-rule="evenodd" clip-rule="evenodd" d="M19.581 28.9712C19.582 28.8846 19.5831 28.798 19.5843 28.7113C19.6372 28.5827 19.762 28.4575 19.602 28.3194C19.6033 28.2236 19.6045 28.128 19.6056 28.0323C19.7134 27.9487 19.8441 27.7059 19.8803 28.0786C19.9045 28.3281 19.945 28.5761 19.9734 28.8253C19.9863 28.9383 19.989 29.0522 20.1389 29.068C20.2994 29.0849 20.3903 28.9743 20.4041 28.8515C20.4489 28.4516 20.5409 28.0452 20.354 27.6536C20.3531 27.6209 20.3523 27.5881 20.3514 27.5554C20.4813 27.3831 20.6081 27.5188 20.7359 27.5592C20.8134 27.612 20.8849 27.6787 20.9694 27.7152C21.5988 27.9872 21.6044 28.0493 21.1087 28.5313C20.515 29.1086 20.284 29.7759 20.4811 30.6248C20.6086 31.1737 20.9629 31.5567 21.2171 32.0132C21.1189 32.1616 20.9646 32.1068 20.8292 32.1207C20.7666 32.1181 20.704 32.1155 20.6413 32.1129C20.1639 31.6784 19.6037 31.3056 19.5053 30.5883C19.6937 30.057 19.5534 29.5102 19.581 28.9712Z" fill="#F89109"/>
<path fill-rule="evenodd" clip-rule="evenodd" d="M27.8005 30.7959C27.7269 29.8431 27.6534 28.8903 27.5799 27.9375C27.5471 27.9359 27.4086 27.3332 27.3758 27.3316C26.8469 26.6243 27.1129 28.1071 27.4777 29.4603C27.4516 30.0792 27.4712 30.4938 27.7569 30.8793C27.7694 30.8504 27.784 30.8226 27.8005 30.7959Z" fill="#F89109"/>
<path fill-rule="evenodd" clip-rule="evenodd" d="M26.937 27.4563C26.9714 27.5041 27.011 27.5498 27.0553 27.5936C27.011 27.5498 26.9714 27.5041 26.937 27.4563ZM27.1899 27.6511C27.0537 27.6441 26.9822 27.5881 26.9438 27.5006C26.9822 27.5881 27.0537 27.6441 27.1899 27.6511C27.1905 27.6201 27.191 27.5891 27.1914 27.5581C27.3221 27.212 27.2735 26.8485 27.2947 26.4915C27.3024 26.4687 27.3024 26.4461 27.2949 26.4235C27.1009 26.2166 27.2223 25.9663 27.2002 25.7357C27.0761 24.0817 26.7207 22.4696 26.3033 20.8706C26.0726 19.9866 25.8202 19.1074 25.4508 18.2672C25.4082 18.1703 25.4089 18.0544 25.3896 17.9473C24.8678 17.0012 24.3518 16.0511 23.5428 15.3061C22.7042 15.4347 21.8584 15.3868 21.0155 15.4094C20.8306 15.8807 20.5219 16.2775 20.2474 16.6953C19.9761 17.1081 19.791 17.5528 19.7823 18.0566C20.0957 17.7733 20.38 17.4462 20.7279 17.2148C21.8637 16.4594 23.1305 16.781 24.0377 18.0212C25.0701 19.4326 25.5353 21.0737 25.958 22.7355C26.2754 23.9834 26.4446 25.2596 26.7154 26.5161V26.5161C26.715 26.8024 26.7146 27.0888 26.7142 27.3752C26.7155 27.3999 26.7149 27.4245 26.7126 27.4491C26.8253 27.5226 26.8111 27.6364 26.8073 27.747C26.81 27.7763 26.8111 27.8057 26.8105 27.835C26.964 28.233 26.8245 28.6749 26.9949 29.0705C27.0385 28.8909 27.082 28.7114 27.1256 28.5318C27.082 28.7114 27.0385 28.8909 26.995 29.0706C27.0548 29.801 27.1145 30.5313 27.1745 31.2617C27.1879 31.5438 27.2011 31.8258 27.2142 32.1078C27.4407 31.8848 27.6759 31.6682 27.7821 31.3543C27.7737 31.1956 27.7653 31.0369 27.757 30.8783" fill="#F89109"/>
<path fill-rule="evenodd" clip-rule="evenodd" d="M21.1144 18.634C20.8522 18.332 21.0567 17.9797 21.0205 17.6533C21.0137 17.5915 21.1459 17.5987 21.2022 17.6766C21.203 17.8171 21.2152 17.9586 21.202 18.0978C21.1764 18.3698 21.3014 18.4452 21.5578 18.4445C21.814 18.4438 21.8867 18.329 21.8714 18.1016C21.862 17.9617 21.8634 17.821 21.8599 17.6807C22.1466 17.4776 22.4745 17.5659 22.772 17.6006C22.9751 17.6243 22.8573 17.7343 22.7312 17.7709C22.6965 17.7111 22.6615 17.7123 22.6261 17.7702L22.5819 17.7675C22.5819 17.7675 22.5376 17.7702 22.5376 17.7702C22.3741 17.8342 22.07 17.518 22.05 17.9927C22.0331 18.3961 22.2097 18.4737 22.5425 18.4379C22.6345 18.428 22.7282 18.4343 22.8211 18.4332C23.0198 18.7192 22.9306 19.0454 22.8949 19.34C22.8707 19.5394 22.7597 19.4118 22.7234 19.2928C22.725 19.2301 22.7296 19.1673 22.7277 19.1047C22.7207 18.8821 22.8083 18.6269 22.4138 18.6195C22.0485 18.6126 22.0358 18.8183 22.0656 19.0691C22.1062 19.4109 21.9484 19.5161 21.6328 19.4891C21.4303 19.4718 21.2254 19.4828 21.0215 19.4812C21.0212 19.4216 21.0209 19.3621 21.0205 19.3024C21.2071 19.2997 21.3943 19.2866 21.5803 19.2967C21.8541 19.3117 21.8703 19.1454 21.8731 18.9373C21.8759 18.7261 21.8111 18.6116 21.5808 18.6277C21.426 18.6385 21.2699 18.6325 21.1144 18.634Z" fill="#FFEE00"/>
<path fill-rule="evenodd" clip-rule="evenodd" d="M21.0208 19.4806C21.2246 19.4822 21.4296 19.4711 21.6321 19.4885C21.9476 19.5155 22.1054 19.4102 22.0648 19.0685C22.0351 18.8177 22.0478 18.612 22.4131 18.6188C22.8076 18.6263 22.72 18.8815 22.7269 19.104C22.7289 19.1667 22.7243 19.2295 22.7227 19.2922C22.5407 19.1725 22.3673 19.1872 22.2116 19.3361C21.9076 19.6269 21.2794 19.7461 20.9438 19.5713C20.9332 19.5658 20.9264 19.5531 20.9179 19.5438C20.9522 19.5227 20.9865 19.5016 21.0208 19.4806Z" fill="#EE472B"/>
<path fill-rule="evenodd" clip-rule="evenodd" d="M17.9748 28.0334C17.9749 27.7485 17.9751 27.4636 17.9752 27.1787C18.0099 26.9156 18.0377 26.6513 18.0819 26.3897C18.1077 26.2375 18.1335 26.0695 18.3407 26.0482C18.3853 26.4409 18.0628 26.7744 18.1597 27.1753C18.0254 27.3221 18.0609 27.509 18.0795 27.6706C18.1331 28.1381 18.1887 28.604 18.1649 29.0757C18.042 29.1436 18.2265 29.2989 18.084 29.3611C17.959 29.3014 17.9857 29.1838 17.9767 29.0798C17.9736 28.9525 17.9704 28.8252 17.9674 28.6979C17.97 28.4764 17.9724 28.2549 17.9748 28.0334Z" fill="#FC8C2C"/>
<path fill-rule="evenodd" clip-rule="evenodd" d="M21.1143 18.6335C21.2698 18.632 21.4258 18.638 21.5807 18.6272C21.811 18.6111 21.8757 18.7256 21.8729 18.9367C21.8701 19.1449 21.8539 19.3112 21.5801 19.2962C21.3942 19.2861 21.207 19.2991 21.0204 19.3019C21.244 19.1062 21.2614 18.8815 21.1143 18.6335Z" fill="#EE472B"/>
<path fill-rule="evenodd" clip-rule="evenodd" d="M21.859 17.6811C21.8625 17.8214 21.8611 17.9621 21.8705 18.102C21.8858 18.3294 21.8131 18.4442 21.5569 18.4449C21.3005 18.4456 21.1755 18.3702 21.2011 18.0982C21.2142 17.9591 21.2021 17.8175 21.2013 17.6771C21.4191 17.9075 21.6392 17.7693 21.859 17.6811Z" fill="#EE472B"/>
<path fill-rule="evenodd" clip-rule="evenodd" d="M22.8212 18.4327C22.7283 18.4338 22.6346 18.4275 22.5426 18.4375C22.2098 18.4732 22.0332 18.3956 22.0501 17.9922C22.0701 17.5175 22.3742 17.8338 22.5377 17.7698C22.5194 17.8535 22.4284 18.0172 22.5175 18.0089C22.9008 17.9732 22.7311 18.2885 22.8212 18.4327Z" fill="#EE472B"/>
<path fill-rule="evenodd" clip-rule="evenodd" d="M20.829 32.1206C20.9643 32.1067 21.1187 32.1615 21.2167 32.0132C21.7791 32.3531 22.3433 32.4019 22.9097 32.0226C22.9118 32.0853 22.914 32.148 22.9161 32.2107C22.7937 32.3631 22.5767 32.2789 22.442 32.4006C21.8915 32.3812 21.3182 32.4934 20.829 32.1206Z" fill="#FC8C2C"/>
<path fill-rule="evenodd" clip-rule="evenodd" d="M20.8295 32.1215C21.3188 32.4944 21.8921 32.3822 22.4426 32.4015C22.4114 32.4666 22.3802 32.5318 22.3489 32.5969C22.349 32.5969 22.3489 32.5976 22.3489 32.5976C22.0626 32.4954 21.7641 32.5134 21.4674 32.4934C21.1542 32.4723 20.7945 32.5041 20.6416 32.1138C20.7043 32.1163 20.7669 32.1189 20.8295 32.1215Z" fill="#EE472B"/>
<path fill-rule="evenodd" clip-rule="evenodd" d="M19.58 28.9712C19.5524 29.5102 19.6928 30.057 19.5043 30.5884C19.4815 30.047 19.3998 29.5029 19.58 28.9712Z" fill="#FC8C2C"/>
<path fill-rule="evenodd" clip-rule="evenodd" d="M24.1702 27.2793C24.1622 27.3088 24.1568 27.3388 24.154 27.3692C24.0032 27.3744 23.875 27.353 23.8596 27.1606C23.8456 26.9858 23.7082 26.9941 23.5839 26.9883C23.7154 26.833 23.8944 26.916 24.0525 26.8947C24.1919 26.9922 24.1273 27.1522 24.1702 27.2793Z" fill="#FC8C2C"/>
<path fill-rule="evenodd" clip-rule="evenodd" d="M18.3492 30.3014C17.8808 30.182 18.1378 29.8102 18.0869 29.5456C18.1907 29.7918 18.3517 30.0182 18.3492 30.3014Z" fill="#FC8C2C"/>
<path fill-rule="evenodd" clip-rule="evenodd" d="M19.681 27.2922C19.6514 27.2887 19.6221 27.2834 19.5931 27.2765C19.6552 27.1017 19.6164 26.8697 19.8628 26.7993C19.8701 26.8299 19.8747 26.8609 19.8765 26.8924C19.7338 26.9877 19.8334 27.2016 19.681 27.2922Z" fill="#EE472B"/>
<path fill-rule="evenodd" clip-rule="evenodd" d="M19.4895 28.6945C19.4914 28.5595 19.5177 28.4316 19.601 28.3209C19.7607 28.4587 19.6362 28.5837 19.5833 28.7121C19.552 28.7064 19.5208 28.7005 19.4895 28.6945Z" fill="#FC8C2C"/>
<path fill-rule="evenodd" clip-rule="evenodd" d="M22.6254 17.8602C22.6717 17.6817 22.7174 17.6779 22.7626 17.8624C22.7169 17.8616 22.6711 17.8609 22.6254 17.8602Z" fill="#EE472B"/>
<path fill-rule="evenodd" clip-rule="evenodd" d="M25.9557 26.9366C26.0015 26.8908 26.0473 26.8451 26.093 26.7993C26.0473 26.8451 26.0015 26.8909 25.9557 26.9366Z" fill="#DA4739"/>
<path fill-rule="evenodd" clip-rule="evenodd" d="M17.976 28.0329C17.9736 28.2544 17.9712 28.476 17.9686 28.6975C17.2468 28.3737 17.2328 28.2508 17.8505 27.6443C17.9294 27.7624 17.8269 27.939 17.976 28.0329Z" fill="#F79507"/>
<path fill-rule="evenodd" clip-rule="evenodd" d="M17.7013 27.5423C17.6768 27.5805 17.6514 27.6509 17.6282 27.6454C17.6056 27.64 17.5854 27.5572 17.5641 27.5084C17.6098 27.5194 17.6556 27.5304 17.7013 27.5423Z" fill="#F79507"/>
<path fill-rule="evenodd" clip-rule="evenodd" d="M21.2074 26.7997C21.1272 27.1009 20.7019 27.1878 20.7358 27.56C20.6081 27.5195 20.4813 27.3839 20.3514 27.5561C20.2354 27.5738 20.0089 27.5327 20.0317 27.6455C20.0919 27.9435 19.9851 28.2736 20.1891 28.6228C20.3267 28.2623 20.1773 27.928 20.3539 27.6544C20.5409 28.046 20.4489 28.4523 20.404 28.8522C20.3903 28.9751 20.2994 29.0857 20.1389 29.0687C19.989 29.0529 19.9863 28.939 19.9734 28.8261C19.9449 28.5768 19.9045 28.3289 19.8803 28.0793C19.8441 27.7067 19.7134 27.9494 19.6056 28.033C19.6011 27.9398 19.5966 27.8467 19.592 27.7534C19.7019 27.6754 19.6906 27.5621 19.6807 27.4491C19.6809 27.397 19.6812 27.3449 19.6814 27.293C19.834 27.2025 19.7342 26.9882 19.8771 26.8927C19.8788 27.0645 19.8518 27.2544 20.0728 27.3195C20.2544 27.373 20.4098 27.298 20.5368 27.1746C20.7281 26.9886 20.908 26.7892 21.2074 26.7997Z" fill="#FC8C2C"/>
<path fill-rule="evenodd" clip-rule="evenodd" d="M21.5935 25.948C21.9277 26.3593 21.8178 26.6022 21.2081 26.7991C21.3576 26.5249 21.7051 26.3406 21.5935 25.948Z" fill="#FC8C2C"/>
<path fill-rule="evenodd" clip-rule="evenodd" d="M23.3885 27.5539C23.3889 27.4956 23.3893 27.4373 23.3897 27.379C23.3896 27.3452 23.3895 27.3116 23.3894 27.2779L23.3931 27.2729C23.4554 27.1793 23.5178 27.0856 23.5801 26.9921C23.5806 27.1784 23.6037 27.368 23.5762 27.55C23.5371 27.809 23.4527 27.541 23.3885 27.5539Z" fill="#FC8C2C"/>
<path fill-rule="evenodd" clip-rule="evenodd" d="M23.3021 27.3619C23.2697 27.3292 23.2373 27.2966 23.2049 27.2638C23.2723 27.1693 23.3348 27.18 23.3935 27.2725C23.3935 27.2725 23.3898 27.2775 23.3898 27.2775C23.3606 27.3056 23.3314 27.3337 23.3021 27.3619Z" fill="#FC8C2C"/>
<path fill-rule="evenodd" clip-rule="evenodd" d="M23.2937 27.745C23.3395 27.7128 23.3853 27.6806 23.431 27.6484C23.4212 27.6941 23.4117 27.7399 23.4021 27.7857C23.366 27.7721 23.3298 27.7585 23.2937 27.745Z" fill="#FC8C2C"/>
<path fill-rule="evenodd" clip-rule="evenodd" d="M20.3534 27.6544C20.1768 27.928 20.3262 28.2623 20.1886 28.6228C19.9845 28.2737 20.0914 27.9436 20.0312 27.6455C20.0084 27.5327 20.2349 27.5739 20.3509 27.5562C20.3517 27.5889 20.3526 27.6216 20.3534 27.6544Z" fill="#F79507"/>
<path fill-rule="evenodd" clip-rule="evenodd" d="M22.8954 19.3406C22.8712 19.54 22.7602 19.4125 22.7238 19.2935C22.5419 19.1737 22.3685 19.1884 22.2127 19.3374C21.9088 19.6281 21.2806 19.7474 20.9449 19.5725C20.9344 19.567 20.9276 19.5543 20.919 19.545C20.9534 19.5239 20.9877 19.5029 21.022 19.4818C21.0217 19.4223 21.0213 19.3627 21.021 19.3032C21.2446 19.1074 21.262 18.8826 21.1149 18.6347C20.8527 18.3326 21.0572 17.9803 21.021 17.6539C21.0141 17.5921 21.1463 17.5993 21.2026 17.6772C21.4205 17.9077 21.6406 17.7695 21.8604 17.6813C22.147 17.4783 22.4749 17.5666 22.7725 17.6012C22.9756 17.6249 22.8578 17.7349 22.7317 17.7715C22.6966 17.7713 22.6616 17.7711 22.6266 17.7708L22.5823 17.7682L22.5381 17.7708C22.5197 17.8546 22.4287 18.0183 22.5178 18.01C22.9011 17.9743 22.7315 18.2896 22.8216 18.4338C23.0203 18.7199 22.9311 19.0461 22.8954 19.3406ZM19.4063 28.0749C19.41 28.0616 19.4145 28.0487 19.4183 28.0356C19.4145 28.0487 19.41 28.0616 19.4063 28.0749ZM19.2154 29.1823C19.262 29.1842 19.3087 29.1394 19.3527 29.045C19.3087 29.1394 19.262 29.1842 19.2154 29.1823ZM19.16 29.0905C19.2053 29.1321 19.2511 29.1639 19.2972 29.1802C19.2511 29.1639 19.2053 29.1321 19.16 29.0905ZM19.0659 28.9936C19.1079 29.0567 19.1545 29.1027 19.2032 29.1309C19.1545 29.1027 19.1079 29.0567 19.0659 28.9936ZM19.2491 27.6175C19.202 27.6621 19.1563 27.7079 19.1118 27.7548C19.1563 27.7079 19.202 27.6621 19.2491 27.6175ZM19.3858 28.2173C19.3882 28.193 19.3906 28.1687 19.3931 28.1445C19.3906 28.1687 19.3882 28.193 19.3858 28.2173ZM19.3788 28.2994C19.3829 28.2536 19.3874 28.2078 19.3922 28.1622C19.3874 28.2078 19.3829 28.2536 19.3788 28.2994ZM19.1996 27.494C19.2497 27.4113 19.3057 27.3467 19.3661 27.3089C19.3747 27.3034 19.384 27.2992 19.3939 27.2958C19.384 27.2993 19.3747 27.3035 19.3661 27.3089C19.3057 27.3467 19.2497 27.4113 19.1996 27.494C19.1859 27.5165 19.1727 27.5404 19.16 27.5655C19.1727 27.5404 19.1859 27.5165 19.1996 27.494ZM18.6897 28.4415C18.6868 28.5095 18.6638 28.5766 18.6202 28.6409C18.6016 28.6684 18.5791 28.6955 18.5528 28.7218C18.5791 28.6955 18.6016 28.6684 18.6202 28.6409C18.6638 28.5766 18.6868 28.5095 18.6897 28.4415C18.6901 28.4317 18.6901 28.422 18.6897 28.4123C18.6901 28.422 18.6901 28.4317 18.6897 28.4415ZM18.5585 29.0027C18.5786 28.9579 18.5975 28.9119 18.6162 28.8655C18.5975 28.9119 18.5786 28.9579 18.5585 29.0027ZM18.6259 28.0699C18.6033 28.0234 18.5795 27.9777 18.5545 27.9326C18.5795 27.9777 18.6033 28.0234 18.6259 28.0699ZM18.6356 28.1206C18.6132 28.0743 18.5893 28.0285 18.5641 27.9833C18.5893 28.0285 18.6132 28.0743 18.6356 28.1206ZM18.168 27.3968C18.1687 27.4185 18.1695 27.4402 18.1702 27.4619C18.2399 27.4917 18.3292 27.5034 18.3759 27.5542C18.4242 27.6069 18.4639 27.695 18.4946 27.8038C18.5051 27.8413 18.5146 27.8813 18.5229 27.9231C18.5146 27.8813 18.5051 27.8413 18.4946 27.8038C18.4639 27.695 18.4242 27.6069 18.3759 27.5542C18.3292 27.5034 18.2399 27.4917 18.1702 27.462C18.1695 27.4402 18.1687 27.4185 18.168 27.3968ZM18.6383 28.2025C18.6214 28.1563 18.603 28.1105 18.5834 28.0652C18.603 28.1105 18.6214 28.1563 18.6383 28.2025ZM18.6596 28.3508C18.6529 28.3217 18.6422 28.2926 18.6273 28.2636C18.6179 28.2448 18.6066 28.226 18.5937 28.2073C18.6066 28.226 18.6179 28.2448 18.6273 28.2636C18.6422 28.2926 18.6529 28.3217 18.6596 28.3508ZM26.996 29.071C26.8256 28.6753 27.0873 28.203 26.9339 27.8048L26.8269 27.3616C26.8273 27.0753 26.7161 26.8028 26.7165 26.5164C26.4457 25.26 26.2764 23.9838 25.959 22.7358C25.5363 21.0741 25.0712 19.4329 24.0387 18.0216C23.1315 16.7814 21.8647 16.4598 20.7289 17.2151C20.381 17.4465 20.0968 17.7737 19.7834 18.0569C19.6889 18.3088 19.5944 18.5607 19.4999 18.8126C19.3826 20.5473 19.5108 22.3028 19.0325 24.0072C18.9088 24.4481 18.7707 24.8822 18.5718 25.2906C18.4522 25.5363 18.3684 25.7803 18.3423 26.0483C18.387 26.4408 18.0645 26.7743 18.1614 27.1752V27.1753C18.0271 27.3221 18.0625 27.509 18.0811 27.6705C18.1348 28.138 18.1903 28.6039 18.1666 29.0756C18.0436 29.1435 18.2282 29.2988 18.0857 29.361C18.0866 29.4226 18.0874 29.4843 18.0883 29.546C18.1921 29.7922 18.3531 30.0186 18.3507 30.3018C18.533 30.9445 18.9968 31.446 19.2322 32.063C19.3336 32.3287 19.4444 32.5887 19.391 32.8828C19.4229 32.8818 19.455 32.8808 19.4871 32.8798C20.4514 32.888 21.41 32.8376 22.3498 32.5971C22.0634 32.4949 21.7649 32.513 21.4681 32.4929C21.1548 32.4718 20.7949 32.5036 20.642 32.1133C20.1644 31.6787 19.604 31.306 19.5056 30.5885C19.4828 30.0472 19.4011 29.5032 19.5813 28.9715C19.5823 28.8849 19.5834 28.7983 19.5845 28.7118C19.5532 28.7058 19.5219 28.6999 19.4906 28.694C19.4925 28.5587 19.5188 28.4306 19.6023 28.3196C19.6036 28.224 19.6048 28.1283 19.6061 28.0326C19.6015 27.9394 19.5969 27.8462 19.5923 27.7531C19.4574 27.7975 19.3924 27.8765 19.3594 27.9706C19.3924 27.8765 19.4574 27.7975 19.5923 27.753C19.7023 27.675 19.691 27.5616 19.6811 27.4487C19.6813 27.3966 19.6816 27.3445 19.6818 27.2925C19.652 27.2893 19.6226 27.284 19.5936 27.277C19.6558 27.1019 19.6169 26.8695 19.8638 26.799C20.291 25.5091 20.7532 24.236 21.3486 23.0083C21.59 22.5108 21.6468 21.9232 21.7831 21.3755C21.8135 21.2536 21.8237 21.0744 21.9492 21.0687C22.1213 21.0608 22.1178 21.2518 22.153 21.3848C22.3493 22.1251 22.5914 22.8455 22.8701 23.5635C23.2956 24.6597 23.8383 25.7213 24.0536 26.8941C24.193 26.9917 24.1285 27.1517 24.1713 27.2788C24.1633 27.3083 24.1579 27.3383 24.1551 27.3687C24.2159 27.4959 24.2767 27.6231 24.3375 27.7504C24.3408 27.8582 24.3214 27.9732 24.4314 28.0473C24.4314 28.0473 24.4314 28.0473 24.4314 28.0473C24.4354 28.3933 24.4394 28.7394 24.4434 29.0855C24.4413 29.449 24.4383 29.8125 24.4374 30.1761C24.4349 31.1256 23.8414 31.9211 22.9178 32.2111C22.7954 32.3636 22.5783 32.2794 22.4436 32.401C22.4123 32.4661 22.3811 32.5313 22.3499 32.5964C23.4128 32.552 24.4178 32.2401 25.4164 31.9129C26.0101 31.7183 26.5895 31.4804 27.1754 31.262C27.1156 30.5317 27.0558 29.8014 26.996 29.071Z" fill="#FF0000"/>
<path fill-rule="evenodd" clip-rule="evenodd" d="M22.4381 29.5568C22.9335 30.0476 22.8551 30.6141 22.2542 30.8851C22.2226 30.9131 22.191 30.9411 22.1594 30.9692C22.0632 30.9703 21.9671 30.9714 21.871 30.9726C21.8067 30.7158 21.5744 30.7531 21.3938 30.6997C21.3938 30.6997 21.3933 30.6978 21.3934 30.6978C21.3326 29.6249 21.5613 29.554 22.3512 29.5507C22.3512 29.5507 22.3504 29.5493 22.3504 29.5493C22.3751 29.6057 22.4037 29.6157 22.4381 29.5568Z" fill="#F7C107"/>
<path fill-rule="evenodd" clip-rule="evenodd" d="M22.1503 24.1342C22.3024 24.5044 22.4784 24.8725 22.2516 25.2763C22.0858 25.2422 21.8006 25.3818 21.7965 25.0984C21.7913 24.7511 21.6895 24.3265 22.1503 24.1342Z" fill="#F89109"/>
<path fill-rule="evenodd" clip-rule="evenodd" d="M22.15 24.134C21.6892 24.3264 21.791 24.7509 21.7962 25.0983C21.8003 25.3816 22.0855 25.2421 22.2512 25.2762C21.7287 25.4745 21.5675 25.3798 21.5909 24.8645C21.6096 24.4537 21.7521 24.0779 21.9747 23.689C22.0983 23.8409 22.1304 23.9848 22.15 24.134Z" fill="#FC8C2C"/>
<path fill-rule="evenodd" clip-rule="evenodd" d="M22.3507 29.5508C21.5608 29.5541 21.3321 29.625 21.3929 30.6979C21.0852 30.3473 21.0651 29.9897 21.335 29.6675C21.6262 29.3199 21.9306 29.2849 22.3507 29.5508Z" fill="#FC8C2C"/>
<path fill-rule="evenodd" clip-rule="evenodd" d="M21.3925 30.6992C21.5728 30.7524 21.8046 30.7152 21.8688 30.9715C21.6873 30.9205 21.4548 30.959 21.3925 30.6992Z" fill="#FC8C2C"/>
<path fill-rule="evenodd" clip-rule="evenodd" d="M22.3872 27.5583C22.3707 27.6908 22.443 27.8391 22.252 27.9402C22.2708 27.8082 22.1882 27.658 22.3872 27.5583Z" fill="#FA5E53"/>
<path fill-rule="evenodd" clip-rule="evenodd" d="M22.5384 27.4633C22.4971 27.5729 22.4266 27.6002 22.3466 27.6005C22.3864 27.4865 22.459 27.4652 22.5384 27.4633Z" fill="#FA5E53"/>
<path fill-rule="evenodd" clip-rule="evenodd" d="M22.4872 29.5718C22.4333 29.742 22.3885 29.713 22.3499 29.5502C22.3962 29.5466 22.4419 29.5539 22.4872 29.5718Z" fill="#FC8C2C"/>
<path fill-rule="evenodd" clip-rule="evenodd" d="M22.1592 31.0226C22.2049 30.9768 22.2507 30.9311 22.2965 30.8853C22.2507 30.9311 22.205 30.9768 22.1592 31.0226Z" fill="#FC8C2C"/>
<path fill-rule="evenodd" clip-rule="evenodd" d="M23.3014 27.3919C23.347 27.3536 23.3926 27.3153 23.4382 27.2771C23.4383 27.3229 23.4385 27.3685 23.4387 27.4144C23.3924 27.4091 23.3467 27.4016 23.3014 27.3919Z" fill="#F89109"/>
<path fill-rule="evenodd" clip-rule="evenodd" d="M22.2528 30.8852C22.2212 30.9132 22.1895 30.9413 22.1579 30.9693C22.0618 30.9704 21.9656 30.9715 21.8695 30.9726C21.6877 30.9215 21.4547 30.9601 21.3924 30.6998L21.3919 30.6979C21.0842 30.3473 21.0642 29.9897 21.334 29.6675C21.6252 29.3199 21.9296 29.2849 22.3497 29.5508L22.349 29.5494C22.3785 29.5482 22.4077 29.5507 22.4366 29.5569C22.9321 30.0477 22.8537 30.6142 22.2528 30.8852ZM21.619 28.8761C21.6168 28.9215 21.6237 28.9673 21.6395 29.0134C21.6237 28.9673 21.6168 28.9215 21.619 28.8761ZM21.5901 24.8649C21.6088 24.4541 21.7513 24.0783 21.9739 23.6894C22.0975 23.8413 22.1296 23.9852 22.1492 24.1344C22.3014 24.5046 22.4773 24.8727 22.2505 25.2766C21.728 25.4749 21.5667 25.3802 21.5901 24.8649ZM23.021 27.2367C22.9755 27.2598 22.9296 27.2814 22.8837 27.3026C22.9296 27.2814 22.9755 27.2598 23.021 27.2367ZM22.6344 28.4158C22.5944 28.1387 22.6491 27.9018 22.9151 27.7547C22.9482 27.7505 22.9814 27.7462 23.0145 27.7421C23.1071 27.7409 23.1998 27.7397 23.2924 27.7386C23.3221 27.7082 23.3519 27.6778 23.3815 27.6474C23.3812 27.6156 23.3834 27.5841 23.3878 27.5527C23.3882 27.4944 23.3886 27.4361 23.389 27.3778C23.3593 27.3739 23.33 27.3683 23.3009 27.3612C23.2684 27.3285 23.2359 27.2958 23.2035 27.263C23.1448 27.2334 23.0861 27.2039 23.0272 27.1744C22.912 26.9991 22.7462 26.883 22.5781 26.7618C22.1561 26.4575 22.1592 26.2581 22.5802 25.923C22.8533 25.7056 23.0755 25.4566 23.0022 25.082C22.8585 24.3473 22.5002 23.6914 22.1938 23.019C22.0921 22.7958 21.9322 22.7631 21.8003 23.0329C21.592 23.4587 21.4064 23.8921 21.2386 24.3363C20.9211 25.1771 20.9424 25.3308 21.5924 25.9474C21.9268 26.3588 21.8168 26.6016 21.2069 26.7985C21.2069 26.7985 21.2064 26.799 21.2064 26.799C21.1261 27.1002 20.7007 27.1871 20.7346 27.5592C20.8122 27.612 20.8837 27.6787 20.9682 27.7152C21.5979 27.9872 21.6035 28.0493 21.1076 28.5313C20.5137 29.1086 20.2826 29.7759 20.4798 30.6248C20.6074 31.1737 20.9618 31.5567 21.2159 32.0133C21.7785 32.3532 22.3429 32.4021 22.9095 32.0228C23.2853 31.5719 23.5885 31.0816 23.6714 30.4888C23.8007 29.5642 23.3272 28.9331 22.6344 28.4158Z" fill="#FF0000"/>
<path fill-rule="evenodd" clip-rule="evenodd" d="M22.4168 27.611C22.4129 27.6139 22.4095 27.6167 22.4057 27.6196C22.4039 27.6228 22.4021 27.6256 22.4005 27.629L22.4168 27.611Z" fill="#EE472B"/>
<path fill-rule="evenodd" clip-rule="evenodd" d="M22.4005 27.629C22.4055 27.629 22.4105 27.6287 22.4154 27.6287C22.416 27.6229 22.4162 27.617 22.4168 27.6111C22.4168 27.6111 22.4005 27.6291 22.4005 27.629Z" fill="#EE472B"/>
</g>
</g>
<path d="M61.242 25.644C61.242 26.568 61.0147 27.3747 60.56 28.064C60.1053 28.7533 59.4453 29.2887 58.58 29.67C57.7293 30.0367 56.688 30.22 55.456 30.22C54.9133 30.22 54.378 30.1833 53.85 30.11C53.3367 30.0367 52.838 29.934 52.354 29.802C51.8847 29.6553 51.4373 29.4793 51.012 29.274V26.172C51.76 26.4947 52.53 26.7953 53.322 27.074C54.1287 27.338 54.928 27.47 55.72 27.47C56.2627 27.47 56.6953 27.3967 57.018 27.25C57.3553 27.1033 57.5973 26.9053 57.744 26.656C57.9053 26.4067 57.986 26.1207 57.986 25.798C57.986 25.402 57.8467 25.0647 57.568 24.786C57.304 24.5073 56.9447 24.2507 56.49 24.016C56.0353 23.7667 55.5147 23.5027 54.928 23.224C54.5613 23.048 54.1653 22.8427 53.74 22.608C53.3147 22.3587 52.904 22.058 52.508 21.706C52.1267 21.3393 51.8113 20.8993 51.562 20.386C51.3127 19.8727 51.188 19.2567 51.188 18.538C51.188 17.5993 51.4007 16.8 51.826 16.14C52.266 15.4653 52.882 14.952 53.674 14.6C54.4807 14.248 55.4267 14.072 56.512 14.072C57.3333 14.072 58.1107 14.1673 58.844 14.358C59.592 14.5487 60.3693 14.82 61.176 15.172L60.098 17.768C59.3793 17.4747 58.734 17.2473 58.162 17.086C57.59 16.9247 57.0033 16.844 56.402 16.844C55.9913 16.844 55.6393 16.91 55.346 17.042C55.0527 17.174 54.8253 17.3573 54.664 17.592C54.5173 17.8267 54.444 18.1053 54.444 18.428C54.444 18.7947 54.554 19.11 54.774 19.374C54.994 19.6233 55.324 19.8653 55.764 20.1C56.204 20.3347 56.754 20.6133 57.414 20.936C58.2207 21.3173 58.9027 21.7133 59.46 22.124C60.032 22.5347 60.472 23.0187 60.78 23.576C61.088 24.1333 61.242 24.8227 61.242 25.644ZM70.1032 17.768C70.2645 17.768 70.4552 17.7753 70.6752 17.79C70.8952 17.8047 71.0712 17.8267 71.2032 17.856L70.9612 20.936C70.8585 20.9067 70.7045 20.8847 70.4992 20.87C70.3085 20.8407 70.1399 20.826 69.9932 20.826C69.5679 20.826 69.1572 20.8847 68.7612 21.002C68.3652 21.1047 68.0059 21.2733 67.6832 21.508C67.3752 21.7427 67.1259 22.058 66.9352 22.454C66.7592 22.8353 66.6712 23.312 66.6712 23.884V30H63.3932V17.988H65.8792L66.3632 20.012H66.5172C66.7519 19.6013 67.0452 19.2273 67.3972 18.89C67.7492 18.5527 68.1525 18.2813 68.6072 18.076C69.0765 17.8707 69.5752 17.768 70.1032 17.768ZM76.2214 17.988V30H72.9434V17.988H76.2214ZM74.5934 13.28C75.0774 13.28 75.4954 13.3973 75.8474 13.632C76.1994 13.852 76.3754 14.27 76.3754 14.886C76.3754 15.4873 76.1994 15.9053 75.8474 16.14C75.4954 16.3747 75.0774 16.492 74.5934 16.492C74.0948 16.492 73.6694 16.3747 73.3174 16.14C72.9801 15.9053 72.8114 15.4873 72.8114 14.886C72.8114 14.27 72.9801 13.852 73.3174 13.632C73.6694 13.3973 74.0948 13.28 74.5934 13.28ZM91.3894 30L87.6054 17.68H87.5174C87.5321 17.9733 87.5541 18.4133 87.5834 19C87.6127 19.5867 87.6421 20.2173 87.6714 20.892C87.7007 21.552 87.7154 22.1533 87.7154 22.696V30H84.7454V14.292H89.2774L92.9954 26.304H93.0614L96.9994 14.292H101.531V30H98.4294V22.564C98.4294 22.0653 98.4367 21.4933 98.4514 20.848C98.4807 20.2027 98.5027 19.594 98.5174 19.022C98.5467 18.4353 98.5687 17.9953 98.5834 17.702H98.4954L94.4474 30H91.3894ZM109.723 17.746C111.337 17.746 112.569 18.098 113.419 18.802C114.285 19.4913 114.717 20.5547 114.717 21.992V30H112.429L111.791 28.372H111.703C111.366 28.7973 111.014 29.1493 110.647 29.428C110.295 29.7067 109.885 29.9047 109.415 30.022C108.961 30.154 108.396 30.22 107.721 30.22C107.017 30.22 106.379 30.088 105.807 29.824C105.25 29.5453 104.81 29.1273 104.487 28.57C104.165 27.998 104.003 27.2793 104.003 26.414C104.003 25.138 104.451 24.1993 105.345 23.598C106.24 22.982 107.582 22.6447 109.371 22.586L111.461 22.52V21.992C111.461 21.3613 111.293 20.8993 110.955 20.606C110.633 20.3127 110.178 20.166 109.591 20.166C109.005 20.166 108.433 20.254 107.875 20.43C107.318 20.5913 106.761 20.7967 106.203 21.046L105.125 18.824C105.771 18.4867 106.482 18.2227 107.259 18.032C108.051 17.8413 108.873 17.746 109.723 17.746ZM110.185 24.478C109.129 24.5073 108.396 24.698 107.985 25.05C107.575 25.402 107.369 25.864 107.369 26.436C107.369 26.9347 107.516 27.294 107.809 27.514C108.103 27.7193 108.484 27.822 108.953 27.822C109.657 27.822 110.251 27.6167 110.735 27.206C111.219 26.7807 111.461 26.1867 111.461 25.424V24.434L110.185 24.478ZM124.453 17.768C125.743 17.768 126.777 18.12 127.555 18.824C128.332 19.5133 128.721 20.628 128.721 22.168V30H125.443V22.982C125.443 22.1167 125.289 21.4713 124.981 21.046C124.673 20.606 124.181 20.386 123.507 20.386C122.509 20.386 121.827 20.7307 121.461 21.42C121.094 22.0947 120.911 23.07 120.911 24.346V30H117.633V17.988H120.141L120.581 19.528H120.757C121.021 19.1173 121.343 18.7873 121.725 18.538C122.106 18.274 122.531 18.0833 123.001 17.966C123.47 17.834 123.954 17.768 124.453 17.768ZM135.458 30.22C134.123 30.22 133.03 29.6993 132.18 28.658C131.344 27.602 130.926 26.0547 130.926 24.016C130.926 21.9627 131.351 20.408 132.202 19.352C133.052 18.296 134.167 17.768 135.546 17.768C136.118 17.768 136.624 17.8487 137.064 18.01C137.504 18.1567 137.878 18.362 138.186 18.626C138.508 18.89 138.78 19.1907 139 19.528H139.11C139.066 19.2933 139.014 18.956 138.956 18.516C138.897 18.0613 138.868 17.5993 138.868 17.13V13.28H142.146V30H139.638L139 28.438H138.868C138.662 28.7607 138.398 29.0613 138.076 29.34C137.768 29.604 137.401 29.8167 136.976 29.978C136.55 30.1393 136.044 30.22 135.458 30.22ZM136.602 27.602C137.511 27.602 138.149 27.338 138.516 26.81C138.882 26.2673 139.073 25.4607 139.088 24.39V24.038C139.088 22.8647 138.904 21.97 138.538 21.354C138.186 20.738 137.526 20.43 136.558 20.43C135.839 20.43 135.274 20.7453 134.864 21.376C134.453 21.992 134.248 22.8867 134.248 24.06C134.248 25.2333 134.453 26.1207 134.864 26.722C135.274 27.3087 135.854 27.602 136.602 27.602ZM148.412 17.988V30H145.134V17.988H148.412ZM146.784 13.28C147.268 13.28 147.686 13.3973 148.038 13.632C148.39 13.852 148.566 14.27 148.566 14.886C148.566 15.4873 148.39 15.9053 148.038 16.14C147.686 16.3747 147.268 16.492 146.784 16.492C146.285 16.492 145.86 16.3747 145.508 16.14C145.17 15.9053 145.002 15.4873 145.002 14.886C145.002 14.27 145.17 13.852 145.508 13.632C145.86 13.3973 146.285 13.28 146.784 13.28ZM158.107 17.768C158.268 17.768 158.459 17.7753 158.679 17.79C158.899 17.8047 159.075 17.8267 159.207 17.856L158.965 20.936C158.862 20.9067 158.708 20.8847 158.503 20.87C158.312 20.8407 158.143 20.826 157.997 20.826C157.571 20.826 157.161 20.8847 156.765 21.002C156.369 21.1047 156.009 21.2733 155.687 21.508C155.379 21.7427 155.129 22.058 154.939 22.454C154.763 22.8353 154.675 23.312 154.675 23.884V30H151.397V17.988H153.883L154.367 20.012H154.521C154.755 19.6013 155.049 19.2273 155.401 18.89C155.753 18.5527 156.156 18.2813 156.611 18.076C157.08 17.8707 157.579 17.768 158.107 17.768Z" fill="black"/>
<defs>
<clipPath id="clip0_2140_14">
<rect width="44" height="44" fill="white"/>
</clipPath>
</defs>
</svg>
